solid OpenSCAD_Model
  facet normal -1 0 0
    outer loop
      vertex -120 120 0
      vertex -120 120 120
      vertex -120 123.9 0
    endloop
  endfacet
  facet normal -1 0 0
    outer loop
      vertex -120 123.9 0
      vertex -120 120 120
      vertex -120 123.9 120
    endloop
  endfacet
  facet normal 0 -1 0
    outer loop
      vertex -120 120 120
      vertex -120 120 0
      vertex -118.1 120 0
    endloop
  endfacet
  facet normal 0 -1 0
    outer loop
      vertex -118.1 120 120
      vertex -120 120 120
      vertex -118.1 120 0
    endloop
  endfacet
  facet normal 0 0 -1
    outer loop
      vertex -120 120 0
      vertex -120 123.9 0
      vertex -118.1 120 0
    endloop
  endfacet
  facet normal 0 0 -1
    outer loop
      vertex -118.1 120 0
      vertex -120 123.9 0
      vertex -118.1 123.9 0
    endloop
  endfacet
  facet normal 0 1 0
    outer loop
      vertex -120 123.9 0
      vertex -120 123.9 120
      vertex -118.1 123.9 0
    endloop
  endfacet
  facet normal 0 1 0
    outer loop
      vertex -118.1 123.9 0
      vertex -120 123.9 120
      vertex -118.1 123.9 120
    endloop
  endfacet
  facet normal 0 0 1
    outer loop
      vertex -120 123.9 120
      vertex -120 120 120
      vertex -118.1 120 120
    endloop
  endfacet
  facet normal 0 0 1
    outer loop
      vertex -118.1 123.9 120
      vertex -120 123.9 120
      vertex -118.1 120 120
    endloop
  endfacet
  facet normal 1 0 0
    outer loop
      vertex -118.1 120 120
      vertex -118.1 120 0
      vertex -118.1 123.9 0
    endloop
  endfacet
  facet normal 1 0 0
    outer loop
      vertex -118.1 123.9 120
      vertex -118.1 120 120
      vertex -118.1 123.9 0
    endloop
  endfacet
  facet normal -1 0 0
    outer loop
      vertex -122 120 0
      vertex -122 120 120
      vertex -122 123.9 0
    endloop
  endfacet
  facet normal -1 0 0
    outer loop
      vertex -122 123.9 0
      vertex -122 120 120
      vertex -122 123.9 120
    endloop
  endfacet
  facet normal 0 -1 0
    outer loop
      vertex -122 120 120
      vertex -122 120 0
      vertex -120.1 120 0
    endloop
  endfacet
  facet normal 0 -1 0
    outer loop
      vertex -120.1 120 120
      vertex -122 120 120
      vertex -120.1 120 0
    endloop
  endfacet
  facet normal 0 0 -1
    outer loop
      vertex -122 120 0
      vertex -122 123.9 0
      vertex -120.1 120 0
    endloop
  endfacet
  facet normal 0 0 -1
    outer loop
      vertex -120.1 120 0
      vertex -122 123.9 0
      vertex -120.1 123.9 0
    endloop
  endfacet
  facet normal 0 1 0
    outer loop
      vertex -122 123.9 0
      vertex -122 123.9 120
      vertex -120.1 123.9 0
    endloop
  endfacet
  facet normal 0 1 0
    outer loop
      vertex -120.1 123.9 0
      vertex -122 123.9 120
      vertex -120.1 123.9 120
    endloop
  endfacet
  facet normal 0 0 1
    outer loop
      vertex -122 123.9 120
      vertex -122 120 120
      vertex -120.1 120 120
    endloop
  endfacet
  facet normal 0 0 1
    outer loop
      vertex -120.1 123.9 120
      vertex -122 123.9 120
      vertex -120.1 120 120
    endloop
  endfacet
  facet normal 1 0 0
    outer loop
      vertex -120.1 120 120
      vertex -120.1 120 0
      vertex -120.1 123.9 0
    endloop
  endfacet
  facet normal 1 0 0
    outer loop
      vertex -120.1 123.9 120
      vertex -120.1 120 120
      vertex -120.1 123.9 0
    endloop
  endfacet
  facet normal -1 0 0
    outer loop
      vertex -120 -120 0
      vertex -120 -120 120
      vertex -120 -116.1 0
    endloop
  endfacet
  facet normal -1 0 0
    outer loop
      vertex -120 -116.1 0
      vertex -120 -120 120
      vertex -120 -116.1 120
    endloop
  endfacet
  facet normal 0 -1 0
    outer loop
      vertex -120 -120 120
      vertex -120 -120 0
      vertex -118.1 -120 0
    endloop
  endfacet
  facet normal 0 -1 0
    outer loop
      vertex -118.1 -120 120
      vertex -120 -120 120
      vertex -118.1 -120 0
    endloop
  endfacet
  facet normal 0 0 -1
    outer loop
      vertex -120 -120 0
      vertex -120 -116.1 0
      vertex -118.1 -120 0
    endloop
  endfacet
  facet normal 0 0 -1
    outer loop
      vertex -118.1 -120 0
      vertex -120 -116.1 0
      vertex -118.1 -116.1 0
    endloop
  endfacet
  facet normal 0 1 0
    outer loop
      vertex -120 -116.1 0
      vertex -120 -116.1 120
      vertex -118.1 -116.1 0
    endloop
  endfacet
  facet normal 0 1 0
    outer loop
      vertex -118.1 -116.1 0
      vertex -120 -116.1 120
      vertex -118.1 -116.1 120
    endloop
  endfacet
  facet normal 0 0 1
    outer loop
      vertex -120 -116.1 120
      vertex -120 -120 120
      vertex -118.1 -120 120
    endloop
  endfacet
  facet normal 0 0 1
    outer loop
      vertex -118.1 -116.1 120
      vertex -120 -116.1 120
      vertex -118.1 -120 120
    endloop
  endfacet
  facet normal 1 0 0
    outer loop
      vertex -118.1 -120 120
      vertex -118.1 -120 0
      vertex -118.1 -116.1 0
    endloop
  endfacet
  facet normal 1 0 0
    outer loop
      vertex -118.1 -116.1 120
      vertex -118.1 -120 120
      vertex -118.1 -116.1 0
    endloop
  endfacet
  facet normal -1 0 0
    outer loop
      vertex -122 -120 0
      vertex -122 -120 120
      vertex -122 -116.1 0
    endloop
  endfacet
  facet normal -1 0 0
    outer loop
      vertex -122 -116.1 0
      vertex -122 -120 120
      vertex -122 -116.1 120
    endloop
  endfacet
  facet normal 0 -1 0
    outer loop
      vertex -122 -120 120
      vertex -122 -120 0
      vertex -120.1 -120 0
    endloop
  endfacet
  facet normal 0 -1 0
    outer loop
      vertex -120.1 -120 120
      vertex -122 -120 120
      vertex -120.1 -120 0
    endloop
  endfacet
  facet normal 0 0 -1
    outer loop
      vertex -122 -120 0
      vertex -122 -116.1 0
      vertex -120.1 -120 0
    endloop
  endfacet
  facet normal 0 0 -1
    outer loop
      vertex -120.1 -120 0
      vertex -122 -116.1 0
      vertex -120.1 -116.1 0
    endloop
  endfacet
  facet normal 0 1 0
    outer loop
      vertex -122 -116.1 0
      vertex -122 -116.1 120
      vertex -120.1 -116.1 0
    endloop
  endfacet
  facet normal 0 1 0
    outer loop
      vertex -120.1 -116.1 0
      vertex -122 -116.1 120
      vertex -120.1 -116.1 120
    endloop
  endfacet
  facet normal 0 0 1
    outer loop
      vertex -122 -116.1 120
      vertex -122 -120 120
      vertex -120.1 -120 120
    endloop
  endfacet
  facet normal 0 0 1
    outer loop
      vertex -120.1 -116.1 120
      vertex -122 -116.1 120
      vertex -120.1 -120 120
    endloop
  endfacet
  facet normal 1 0 0
    outer loop
      vertex -120.1 -120 120
      vertex -120.1 -120 0
      vertex -120.1 -116.1 0
    endloop
  endfacet
  facet normal 1 0 0
    outer loop
      vertex -120.1 -116.1 120
      vertex -120.1 -120 120
      vertex -120.1 -116.1 0
    endloop
  endfacet
  facet normal -1 0 0
    outer loop
      vertex 120 120 0
      vertex 120 120 120
      vertex 120 123.9 0
    endloop
  endfacet
  facet normal -1 0 0
    outer loop
      vertex 120 123.9 0
      vertex 120 120 120
      vertex 120 123.9 120
    endloop
  endfacet
  facet normal 0 -1 0
    outer loop
      vertex 120 120 120
      vertex 120 120 0
      vertex 121.9 120 0
    endloop
  endfacet
  facet normal 0 -1 0
    outer loop
      vertex 121.9 120 120
      vertex 120 120 120
      vertex 121.9 120 0
    endloop
  endfacet
  facet normal 0 0 -1
    outer loop
      vertex 120 120 0
      vertex 120 123.9 0
      vertex 121.9 120 0
    endloop
  endfacet
  facet normal 0 0 -1
    outer loop
      vertex 121.9 120 0
      vertex 120 123.9 0
      vertex 121.9 123.9 0
    endloop
  endfacet
  facet normal 0 1 0
    outer loop
      vertex 120 123.9 0
      vertex 120 123.9 120
      vertex 121.9 123.9 0
    endloop
  endfacet
  facet normal 0 1 0
    outer loop
      vertex 121.9 123.9 0
      vertex 120 123.9 120
      vertex 121.9 123.9 120
    endloop
  endfacet
  facet normal 0 0 1
    outer loop
      vertex 120 123.9 120
      vertex 120 120 120
      vertex 121.9 120 120
    endloop
  endfacet
  facet normal 0 0 1
    outer loop
      vertex 121.9 123.9 120
      vertex 120 123.9 120
      vertex 121.9 120 120
    endloop
  endfacet
  facet normal 1 0 0
    outer loop
      vertex 121.9 120 120
      vertex 121.9 120 0
      vertex 121.9 123.9 0
    endloop
  endfacet
  facet normal 1 0 0
    outer loop
      vertex 121.9 123.9 120
      vertex 121.9 120 120
      vertex 121.9 123.9 0
    endloop
  endfacet
  facet normal -1 0 0
    outer loop
      vertex 118 120 0
      vertex 118 120 120
      vertex 118 123.9 0
    endloop
  endfacet
  facet normal -1 0 0
    outer loop
      vertex 118 123.9 0
      vertex 118 120 120
      vertex 118 123.9 120
    endloop
  endfacet
  facet normal 0 -1 0
    outer loop
      vertex 118 120 120
      vertex 118 120 0
      vertex 119.9 120 0
    endloop
  endfacet
  facet normal 0 -1 0
    outer loop
      vertex 119.9 120 120
      vertex 118 120 120
      vertex 119.9 120 0
    endloop
  endfacet
  facet normal 0 0 -1
    outer loop
      vertex 118 120 0
      vertex 118 123.9 0
      vertex 119.9 120 0
    endloop
  endfacet
  facet normal 0 0 -1
    outer loop
      vertex 119.9 120 0
      vertex 118 123.9 0
      vertex 119.9 123.9 0
    endloop
  endfacet
  facet normal 0 1 0
    outer loop
      vertex 118 123.9 0
      vertex 118 123.9 120
      vertex 119.9 123.9 0
    endloop
  endfacet
  facet normal 0 1 0
    outer loop
      vertex 119.9 123.9 0
      vertex 118 123.9 120
      vertex 119.9 123.9 120
    endloop
  endfacet
  facet normal 0 0 1
    outer loop
      vertex 118 123.9 120
      vertex 118 120 120
      vertex 119.9 120 120
    endloop
  endfacet
  facet normal 0 0 1
    outer loop
      vertex 119.9 123.9 120
      vertex 118 123.9 120
      vertex 119.9 120 120
    endloop
  endfacet
  facet normal 1 0 0
    outer loop
      vertex 119.9 120 120
      vertex 119.9 120 0
      vertex 119.9 123.9 0
    endloop
  endfacet
  facet normal 1 0 0
    outer loop
      vertex 119.9 123.9 120
      vertex 119.9 120 120
      vertex 119.9 123.9 0
    endloop
  endfacet
  facet normal -1 0 0
    outer loop
      vertex 120 -120 0
      vertex 120 -120 120
      vertex 120 -116.1 0
    endloop
  endfacet
  facet normal -1 0 0
    outer loop
      vertex 120 -116.1 0
      vertex 120 -120 120
      vertex 120 -116.1 120
    endloop
  endfacet
  facet normal 0 -1 0
    outer loop
      vertex 120 -120 120
      vertex 120 -120 0
      vertex 121.9 -120 0
    endloop
  endfacet
  facet normal 0 -1 0
    outer loop
      vertex 121.9 -120 120
      vertex 120 -120 120
      vertex 121.9 -120 0
    endloop
  endfacet
  facet normal 0 0 -1
    outer loop
      vertex 120 -120 0
      vertex 120 -116.1 0
      vertex 121.9 -120 0
    endloop
  endfacet
  facet normal 0 0 -1
    outer loop
      vertex 121.9 -120 0
      vertex 120 -116.1 0
      vertex 121.9 -116.1 0
    endloop
  endfacet
  facet normal 0 1 0
    outer loop
      vertex 120 -116.1 0
      vertex 120 -116.1 120
      vertex 121.9 -116.1 0
    endloop
  endfacet
  facet normal 0 1 0
    outer loop
      vertex 121.9 -116.1 0
      vertex 120 -116.1 120
      vertex 121.9 -116.1 120
    endloop
  endfacet
  facet normal 0 0 1
    outer loop
      vertex 120 -116.1 120
      vertex 120 -120 120
      vertex 121.9 -120 120
    endloop
  endfacet
  facet normal 0 0 1
    outer loop
      vertex 121.9 -116.1 120
      vertex 120 -116.1 120
      vertex 121.9 -120 120
    endloop
  endfacet
  facet normal 1 0 0
    outer loop
      vertex 121.9 -120 120
      vertex 121.9 -120 0
      vertex 121.9 -116.1 0
    endloop
  endfacet
  facet normal 1 0 0
    outer loop
      vertex 121.9 -116.1 120
      vertex 121.9 -120 120
      vertex 121.9 -116.1 0
    endloop
  endfacet
  facet normal -1 0 0
    outer loop
      vertex 118 -120 0
      vertex 118 -120 120
      vertex 118 -116.1 0
    endloop
  endfacet
  facet normal -1 0 0
    outer loop
      vertex 118 -116.1 0
      vertex 118 -120 120
      vertex 118 -116.1 120
    endloop
  endfacet
  facet normal 0 -1 0
    outer loop
      vertex 118 -120 120
      vertex 118 -120 0
      vertex 119.9 -120 0
    endloop
  endfacet
  facet normal 0 -1 0
    outer loop
      vertex 119.9 -120 120
      vertex 118 -120 120
      vertex 119.9 -120 0
    endloop
  endfacet
  facet normal 0 0 -1
    outer loop
      vertex 118 -120 0
      vertex 118 -116.1 0
      vertex 119.9 -120 0
    endloop
  endfacet
  facet normal 0 0 -1
    outer loop
      vertex 119.9 -120 0
      vertex 118 -116.1 0
      vertex 119.9 -116.1 0
    endloop
  endfacet
  facet normal 0 1 0
    outer loop
      vertex 118 -116.1 0
      vertex 118 -116.1 120
      vertex 119.9 -116.1 0
    endloop
  endfacet
  facet normal 0 1 0
    outer loop
      vertex 119.9 -116.1 0
      vertex 118 -116.1 120
      vertex 119.9 -116.1 120
    endloop
  endfacet
  facet normal 0 0 1
    outer loop
      vertex 118 -116.1 120
      vertex 118 -120 120
      vertex 119.9 -120 120
    endloop
  endfacet
  facet normal 0 0 1
    outer loop
      vertex 119.9 -116.1 120
      vertex 118 -116.1 120
      vertex 119.9 -120 120
    endloop
  endfacet
  facet normal 1 0 0
    outer loop
      vertex 119.9 -120 120
      vertex 119.9 -120 0
      vertex 119.9 -116.1 0
    endloop
  endfacet
  facet normal 1 0 0
    outer loop
      vertex 119.9 -116.1 120
      vertex 119.9 -120 120
      vertex 119.9 -116.1 0
    endloop
  endfacet
  facet normal -1 0 0
    outer loop
      vertex -120 -2 0
      vertex -120 -2 120
      vertex -120 1.9 0
    endloop
  endfacet
  facet normal -1 0 0
    outer loop
      vertex -120 1.9 0
      vertex -120 -2 120
      vertex -120 1.9 120
    endloop
  endfacet
  facet normal 0 -1 0
    outer loop
      vertex -120 -2 120
      vertex -120 -2 0
      vertex -118.1 -2 0
    endloop
  endfacet
  facet normal 0 -1 0
    outer loop
      vertex -118.1 -2 120
      vertex -120 -2 120
      vertex -118.1 -2 0
    endloop
  endfacet
  facet normal 0 0 -1
    outer loop
      vertex -120 -2 0
      vertex -120 1.9 0
      vertex -118.1 -2 0
    endloop
  endfacet
  facet normal 0 0 -1
    outer loop
      vertex -118.1 -2 0
      vertex -120 1.9 0
      vertex -118.1 1.9 0
    endloop
  endfacet
  facet normal 0 1 0
    outer loop
      vertex -120 1.9 0
      vertex -120 1.9 120
      vertex -118.1 1.9 0
    endloop
  endfacet
  facet normal 0 1 0
    outer loop
      vertex -118.1 1.9 0
      vertex -120 1.9 120
      vertex -118.1 1.9 120
    endloop
  endfacet
  facet normal 0 0 1
    outer loop
      vertex -120 1.9 120
      vertex -120 -2 120
      vertex -118.1 -2 120
    endloop
  endfacet
  facet normal 0 0 1
    outer loop
      vertex -118.1 1.9 120
      vertex -120 1.9 120
      vertex -118.1 -2 120
    endloop
  endfacet
  facet normal 1 0 0
    outer loop
      vertex -118.1 -2 120
      vertex -118.1 -2 0
      vertex -118.1 1.9 0
    endloop
  endfacet
  facet normal 1 0 0
    outer loop
      vertex -118.1 1.9 120
      vertex -118.1 -2 120
      vertex -118.1 1.9 0
    endloop
  endfacet
  facet normal -1 0 0
    outer loop
      vertex -122 -2 0
      vertex -122 -2 120
      vertex -122 1.9 0
    endloop
  endfacet
  facet normal -1 0 0
    outer loop
      vertex -122 1.9 0
      vertex -122 -2 120
      vertex -122 1.9 120
    endloop
  endfacet
  facet normal 0 -1 0
    outer loop
      vertex -122 -2 120
      vertex -122 -2 0
      vertex -120.1 -2 0
    endloop
  endfacet
  facet normal 0 -1 0
    outer loop
      vertex -120.1 -2 120
      vertex -122 -2 120
      vertex -120.1 -2 0
    endloop
  endfacet
  facet normal 0 0 -1
    outer loop
      vertex -122 -2 0
      vertex -122 1.9 0
      vertex -120.1 -2 0
    endloop
  endfacet
  facet normal 0 0 -1
    outer loop
      vertex -120.1 -2 0
      vertex -122 1.9 0
      vertex -120.1 1.9 0
    endloop
  endfacet
  facet normal 0 1 0
    outer loop
      vertex -122 1.9 0
      vertex -122 1.9 120
      vertex -120.1 1.9 0
    endloop
  endfacet
  facet normal 0 1 0
    outer loop
      vertex -120.1 1.9 0
      vertex -122 1.9 120
      vertex -120.1 1.9 120
    endloop
  endfacet
  facet normal 0 0 1
    outer loop
      vertex -122 1.9 120
      vertex -122 -2 120
      vertex -120.1 -2 120
    endloop
  endfacet
  facet normal 0 0 1
    outer loop
      vertex -120.1 1.9 120
      vertex -122 1.9 120
      vertex -120.1 -2 120
    endloop
  endfacet
  facet normal 1 0 0
    outer loop
      vertex -120.1 -2 120
      vertex -120.1 -2 0
      vertex -120.1 1.9 0
    endloop
  endfacet
  facet normal 1 0 0
    outer loop
      vertex -120.1 1.9 120
      vertex -120.1 -2 120
      vertex -120.1 1.9 0
    endloop
  endfacet
  facet normal -1 0 0
    outer loop
      vertex 118 -2 0
      vertex 118 -2 120
      vertex 118 1.9 0
    endloop
  endfacet
  facet normal -1 0 0
    outer loop
      vertex 118 1.9 0
      vertex 118 -2 120
      vertex 118 1.9 120
    endloop
  endfacet
  facet normal 0 -1 0
    outer loop
      vertex 118 -2 120
      vertex 118 -2 0
      vertex 119.9 -2 0
    endloop
  endfacet
  facet normal 0 -1 0
    outer loop
      vertex 119.9 -2 120
      vertex 118 -2 120
      vertex 119.9 -2 0
    endloop
  endfacet
  facet normal 0 0 -1
    outer loop
      vertex 118 -2 0
      vertex 118 1.9 0
      vertex 119.9 -2 0
    endloop
  endfacet
  facet normal 0 0 -1
    outer loop
      vertex 119.9 -2 0
      vertex 118 1.9 0
      vertex 119.9 1.9 0
    endloop
  endfacet
  facet normal 0 1 0
    outer loop
      vertex 118 1.9 0
      vertex 118 1.9 120
      vertex 119.9 1.9 0
    endloop
  endfacet
  facet normal 0 1 0
    outer loop
      vertex 119.9 1.9 0
      vertex 118 1.9 120
      vertex 119.9 1.9 120
    endloop
  endfacet
  facet normal 0 0 1
    outer loop
      vertex 118 1.9 120
      vertex 118 -2 120
      vertex 119.9 -2 120
    endloop
  endfacet
  facet normal 0 0 1
    outer loop
      vertex 119.9 1.9 120
      vertex 118 1.9 120
      vertex 119.9 -2 120
    endloop
  endfacet
  facet normal 1 0 0
    outer loop
      vertex 119.9 -2 120
      vertex 119.9 -2 0
      vertex 119.9 1.9 0
    endloop
  endfacet
  facet normal 1 0 0
    outer loop
      vertex 119.9 1.9 120
      vertex 119.9 -2 120
      vertex 119.9 1.9 0
    endloop
  endfacet
  facet normal -1 0 0
    outer loop
      vertex 120 -2 0
      vertex 120 -2 120
      vertex 120 1.9 0
    endloop
  endfacet
  facet normal -1 0 0
    outer loop
      vertex 120 1.9 0
      vertex 120 -2 120
      vertex 120 1.9 120
    endloop
  endfacet
  facet normal 0 -1 0
    outer loop
      vertex 120 -2 120
      vertex 120 -2 0
      vertex 121.9 -2 0
    endloop
  endfacet
  facet normal 0 -1 0
    outer loop
      vertex 121.9 -2 120
      vertex 120 -2 120
      vertex 121.9 -2 0
    endloop
  endfacet
  facet normal 0 0 -1
    outer loop
      vertex 120 -2 0
      vertex 120 1.9 0
      vertex 121.9 -2 0
    endloop
  endfacet
  facet normal 0 0 -1
    outer loop
      vertex 121.9 -2 0
      vertex 120 1.9 0
      vertex 121.9 1.9 0
    endloop
  endfacet
  facet normal 0 1 0
    outer loop
      vertex 120 1.9 0
      vertex 120 1.9 120
      vertex 121.9 1.9 0
    endloop
  endfacet
  facet normal 0 1 0
    outer loop
      vertex 121.9 1.9 0
      vertex 120 1.9 120
      vertex 121.9 1.9 120
    endloop
  endfacet
  facet normal 0 0 1
    outer loop
      vertex 120 1.9 120
      vertex 120 -2 120
      vertex 121.9 -2 120
    endloop
  endfacet
  facet normal 0 0 1
    outer loop
      vertex 121.9 1.9 120
      vertex 120 1.9 120
      vertex 121.9 -2 120
    endloop
  endfacet
  facet normal 1 0 0
    outer loop
      vertex 121.9 -2 120
      vertex 121.9 -2 0
      vertex 121.9 1.9 0
    endloop
  endfacet
  facet normal 1 0 0
    outer loop
      vertex 121.9 1.9 120
      vertex 121.9 -2 120
      vertex 121.9 1.9 0
    endloop
  endfacet
  facet normal -1 0 0
    outer loop
      vertex -118 124.651 107.144
      vertex -118 -121 0
      vertex -118 123.091 110.718
    endloop
  endfacet
  facet normal -1 0 0
    outer loop
      vertex -118 123.091 110.718
      vertex -118 -121 0
      vertex -118 -122.559 3.57477
    endloop
  endfacet
  facet normal 0 -0.39979 0.916607
    outer loop
      vertex -116.1 -122.559 3.57477
      vertex -116.1 123.091 110.718
      vertex -118 123.091 110.718
    endloop
  endfacet
  facet normal 0 -0.39979 0.916607
    outer loop
      vertex -118 -122.559 3.57477
      vertex -116.1 -122.559 3.57477
      vertex -118 123.091 110.718
    endloop
  endfacet
  facet normal 0 -0.916607 -0.39979
    outer loop
      vertex -118 -121 0
      vertex -116.1 -121 0
      vertex -116.1 -122.559 3.57477
    endloop
  endfacet
  facet normal 0 -0.916607 -0.39979
    outer loop
      vertex -118 -122.559 3.57477
      vertex -118 -121 0
      vertex -116.1 -122.559 3.57477
    endloop
  endfacet
  facet normal 0 0.916607 0.39979
    outer loop
      vertex -116.1 124.651 107.144
      vertex -118 124.651 107.144
      vertex -116.1 123.091 110.718
    endloop
  endfacet
  facet normal 0 0.916607 0.39979
    outer loop
      vertex -116.1 123.091 110.718
      vertex -118 124.651 107.144
      vertex -118 123.091 110.718
    endloop
  endfacet
  facet normal 0 0.39979 -0.916607
    outer loop
      vertex -116.1 124.651 107.144
      vertex -116.1 -121 0
      vertex -118 124.651 107.144
    endloop
  endfacet
  facet normal 0 0.39979 -0.916607
    outer loop
      vertex -118 124.651 107.144
      vertex -116.1 -121 0
      vertex -118 -121 0
    endloop
  endfacet
  facet normal 1 0 0
    outer loop
      vertex -116.1 -121 0
      vertex -116.1 124.651 107.144
      vertex -116.1 123.091 110.718
    endloop
  endfacet
  facet normal 1 0 0
    outer loop
      vertex -116.1 -122.559 3.57477
      vertex -116.1 -121 0
      vertex -116.1 123.091 110.718
    endloop
  endfacet
  facet normal -1 0 0
    outer loop
      vertex -124 126 3
      vertex -124 124.441 -0.574766
      vertex -124 -119.651 110.144
    endloop
  endfacet
  facet normal -1 0 0
    outer loop
      vertex -124 -119.651 110.144
      vertex -124 124.441 -0.574766
      vertex -124 -121.21 106.569
    endloop
  endfacet
  facet normal 0 -0.916607 0.39979
    outer loop
      vertex -122.1 -121.21 106.569
      vertex -122.1 -119.651 110.144
      vertex -124 -119.651 110.144
    endloop
  endfacet
  facet normal 0 -0.916607 0.39979
    outer loop
      vertex -124 -121.21 106.569
      vertex -122.1 -121.21 106.569
      vertex -124 -119.651 110.144
    endloop
  endfacet
  facet normal 0 -0.39979 -0.916607
    outer loop
      vertex -122.1 124.441 -0.574766
      vertex -122.1 -121.21 106.569
      vertex -124 124.441 -0.574766
    endloop
  endfacet
  facet normal 0 -0.39979 -0.916607
    outer loop
      vertex -124 124.441 -0.574766
      vertex -122.1 -121.21 106.569
      vertex -124 -121.21 106.569
    endloop
  endfacet
  facet normal 0 0.39979 0.916607
    outer loop
      vertex -122.1 -119.651 110.144
      vertex -122.1 126 3
      vertex -124 126 3
    endloop
  endfacet
  facet normal 0 0.39979 0.916607
    outer loop
      vertex -124 -119.651 110.144
      vertex -122.1 -119.651 110.144
      vertex -124 126 3
    endloop
  endfacet
  facet normal 0 0.916607 -0.39979
    outer loop
      vertex -122.1 126 3
      vertex -122.1 124.441 -0.574766
      vertex -124 126 3
    endloop
  endfacet
  facet normal 0 0.916607 -0.39979
    outer loop
      vertex -124 126 3
      vertex -122.1 124.441 -0.574766
      vertex -124 124.441 -0.574766
    endloop
  endfacet
  facet normal 1 0 0
    outer loop
      vertex -122.1 124.441 -0.574766
      vertex -122.1 126 3
      vertex -122.1 -119.651 110.144
    endloop
  endfacet
  facet normal 1 0 0
    outer loop
      vertex -122.1 -121.21 106.569
      vertex -122.1 124.441 -0.574766
      vertex -122.1 -119.651 110.144
    endloop
  endfacet
  facet normal -1 0 0
    outer loop
      vertex 116 124.651 107.144
      vertex 116 -121 0
      vertex 116 123.091 110.718
    endloop
  endfacet
  facet normal -1 0 0
    outer loop
      vertex 116 123.091 110.718
      vertex 116 -121 0
      vertex 116 -122.559 3.57477
    endloop
  endfacet
  facet normal 0 -0.39979 0.916607
    outer loop
      vertex 117.9 -122.559 3.57477
      vertex 117.9 123.091 110.718
      vertex 116 123.091 110.718
    endloop
  endfacet
  facet normal 0 -0.39979 0.916607
    outer loop
      vertex 116 -122.559 3.57477
      vertex 117.9 -122.559 3.57477
      vertex 116 123.091 110.718
    endloop
  endfacet
  facet normal 0 -0.916607 -0.39979
    outer loop
      vertex 116 -121 0
      vertex 117.9 -121 0
      vertex 117.9 -122.559 3.57477
    endloop
  endfacet
  facet normal 0 -0.916607 -0.39979
    outer loop
      vertex 116 -122.559 3.57477
      vertex 116 -121 0
      vertex 117.9 -122.559 3.57477
    endloop
  endfacet
  facet normal 0 0.916607 0.39979
    outer loop
      vertex 117.9 124.651 107.144
      vertex 116 124.651 107.144
      vertex 117.9 123.091 110.718
    endloop
  endfacet
  facet normal 0 0.916607 0.39979
    outer loop
      vertex 117.9 123.091 110.718
      vertex 116 124.651 107.144
      vertex 116 123.091 110.718
    endloop
  endfacet
  facet normal 0 0.39979 -0.916607
    outer loop
      vertex 117.9 124.651 107.144
      vertex 117.9 -121 0
      vertex 116 124.651 107.144
    endloop
  endfacet
  facet normal 0 0.39979 -0.916607
    outer loop
      vertex 116 124.651 107.144
      vertex 117.9 -121 0
      vertex 116 -121 0
    endloop
  endfacet
  facet normal 1 0 0
    outer loop
      vertex 117.9 -121 0
      vertex 117.9 124.651 107.144
      vertex 117.9 123.091 110.718
    endloop
  endfacet
  facet normal 1 0 0
    outer loop
      vertex 117.9 -122.559 3.57477
      vertex 117.9 -121 0
      vertex 117.9 123.091 110.718
    endloop
  endfacet
  facet normal -1 0 0
    outer loop
      vertex 122 126 3
      vertex 122 124.441 -0.574766
      vertex 122 -119.651 110.144
    endloop
  endfacet
  facet normal -1 0 0
    outer loop
      vertex 122 -119.651 110.144
      vertex 122 124.441 -0.574766
      vertex 122 -121.21 106.569
    endloop
  endfacet
  facet normal 0 -0.916607 0.39979
    outer loop
      vertex 123.9 -121.21 106.569
      vertex 123.9 -119.651 110.144
      vertex 122 -119.651 110.144
    endloop
  endfacet
  facet normal 0 -0.916607 0.39979
    outer loop
      vertex 122 -121.21 106.569
      vertex 123.9 -121.21 106.569
      vertex 122 -119.651 110.144
    endloop
  endfacet
  facet normal 0 -0.39979 -0.916607
    outer loop
      vertex 123.9 124.441 -0.574766
      vertex 123.9 -121.21 106.569
      vertex 122 124.441 -0.574766
    endloop
  endfacet
  facet normal 0 -0.39979 -0.916607
    outer loop
      vertex 122 124.441 -0.574766
      vertex 123.9 -121.21 106.569
      vertex 122 -121.21 106.569
    endloop
  endfacet
  facet normal 0 0.39979 0.916607
    outer loop
      vertex 123.9 -119.651 110.144
      vertex 123.9 126 3
      vertex 122 126 3
    endloop
  endfacet
  facet normal 0 0.39979 0.916607
    outer loop
      vertex 122 -119.651 110.144
      vertex 123.9 -119.651 110.144
      vertex 122 126 3
    endloop
  endfacet
  facet normal 0 0.916607 -0.39979
    outer loop
      vertex 123.9 126 3
      vertex 123.9 124.441 -0.574766
      vertex 122 126 3
    endloop
  endfacet
  facet normal 0 0.916607 -0.39979
    outer loop
      vertex 122 126 3
      vertex 123.9 124.441 -0.574766
      vertex 122 124.441 -0.574766
    endloop
  endfacet
  facet normal 1 0 0
    outer loop
      vertex 123.9 124.441 -0.574766
      vertex 123.9 126 3
      vertex 123.9 -119.651 110.144
    endloop
  endfacet
  facet normal 1 0 0
    outer loop
      vertex 123.9 -121.21 106.569
      vertex 123.9 124.441 -0.574766
      vertex 123.9 -119.651 110.144
    endloop
  endfacet
  facet normal -1 0 0
    outer loop
      vertex -124 128 119.9
      vertex -124 128 116
      vertex -124 -124 119.9
    endloop
  endfacet
  facet normal -1 0 0
    outer loop
      vertex -124 -124 119.9
      vertex -124 128 116
      vertex -124 -124 116
    endloop
  endfacet
  facet normal 0 -1 2.22045e-16
    outer loop
      vertex -122.1 -124 116
      vertex -122.1 -124 119.9
      vertex -124 -124 119.9
    endloop
  endfacet
  facet normal 0 -1 2.22045e-16
    outer loop
      vertex -124 -124 116
      vertex -122.1 -124 116
      vertex -124 -124 119.9
    endloop
  endfacet
  facet normal 0 2.22045e-16 -1
    outer loop
      vertex -122.1 128 116
      vertex -122.1 -124 116
      vertex -124 128 116
    endloop
  endfacet
  facet normal 0 2.22045e-16 -1
    outer loop
      vertex -124 128 116
      vertex -122.1 -124 116
      vertex -124 -124 116
    endloop
  endfacet
  facet normal 0 -2.22045e-16 1
    outer loop
      vertex -122.1 -124 119.9
      vertex -122.1 128 119.9
      vertex -124 128 119.9
    endloop
  endfacet
  facet normal 0 -2.22045e-16 1
    outer loop
      vertex -124 -124 119.9
      vertex -122.1 -124 119.9
      vertex -124 128 119.9
    endloop
  endfacet
  facet normal 0 1 -2.22045e-16
    outer loop
      vertex -122.1 128 119.9
      vertex -122.1 128 116
      vertex -124 128 119.9
    endloop
  endfacet
  facet normal 0 1 -2.22045e-16
    outer loop
      vertex -124 128 119.9
      vertex -122.1 128 116
      vertex -124 128 116
    endloop
  endfacet
  facet normal 1 0 0
    outer loop
      vertex -122.1 128 116
      vertex -122.1 128 119.9
      vertex -122.1 -124 119.9
    endloop
  endfacet
  facet normal 1 0 0
    outer loop
      vertex -122.1 -124 116
      vertex -122.1 128 116
      vertex -122.1 -124 119.9
    endloop
  endfacet
  facet normal -1 0 0
    outer loop
      vertex -118 124 119.9
      vertex -118 124 116
      vertex -118 -120 119.9
    endloop
  endfacet
  facet normal -1 0 0
    outer loop
      vertex -118 -120 119.9
      vertex -118 124 116
      vertex -118 -120 116
    endloop
  endfacet
  facet normal 0 -1 2.22045e-16
    outer loop
      vertex -116.1 -120 116
      vertex -116.1 -120 119.9
      vertex -118 -120 119.9
    endloop
  endfacet
  facet normal 0 -1 2.22045e-16
    outer loop
      vertex -118 -120 116
      vertex -116.1 -120 116
      vertex -118 -120 119.9
    endloop
  endfacet
  facet normal 0 2.22045e-16 -1
    outer loop
      vertex -116.1 124 116
      vertex -116.1 -120 116
      vertex -118 124 116
    endloop
  endfacet
  facet normal 0 2.22045e-16 -1
    outer loop
      vertex -118 124 116
      vertex -116.1 -120 116
      vertex -118 -120 116
    endloop
  endfacet
  facet normal 0 -2.22045e-16 1
    outer loop
      vertex -116.1 -120 119.9
      vertex -116.1 124 119.9
      vertex -118 124 119.9
    endloop
  endfacet
  facet normal 0 -2.22045e-16 1
    outer loop
      vertex -118 -120 119.9
      vertex -116.1 -120 119.9
      vertex -118 124 119.9
    endloop
  endfacet
  facet normal 0 1 -2.22045e-16
    outer loop
      vertex -116.1 124 119.9
      vertex -116.1 124 116
      vertex -118 124 119.9
    endloop
  endfacet
  facet normal 0 1 -2.22045e-16
    outer loop
      vertex -118 124 119.9
      vertex -116.1 124 116
      vertex -118 124 116
    endloop
  endfacet
  facet normal 1 0 0
    outer loop
      vertex -116.1 124 116
      vertex -116.1 124 119.9
      vertex -116.1 -120 119.9
    endloop
  endfacet
  facet normal 1 0 0
    outer loop
      vertex -116.1 -120 116
      vertex -116.1 124 116
      vertex -116.1 -120 119.9
    endloop
  endfacet
  facet normal -1 0 0
    outer loop
      vertex 122 128 116.1
      vertex 122 -124 116.1
      vertex 122 128 120
    endloop
  endfacet
  facet normal -1 0 0
    outer loop
      vertex 122 128 120
      vertex 122 -124 116.1
      vertex 122 -124 120
    endloop
  endfacet
  facet normal 0 2.22045e-16 1
    outer loop
      vertex 123.9 -124 120
      vertex 123.9 128 120
      vertex 122 128 120
    endloop
  endfacet
  facet normal 0 2.22045e-16 1
    outer loop
      vertex 122 -124 120
      vertex 123.9 -124 120
      vertex 122 128 120
    endloop
  endfacet
  facet normal 0 -1 -2.22045e-16
    outer loop
      vertex 122 -124 116.1
      vertex 123.9 -124 116.1
      vertex 123.9 -124 120
    endloop
  endfacet
  facet normal 0 -1 -2.22045e-16
    outer loop
      vertex 122 -124 120
      vertex 122 -124 116.1
      vertex 123.9 -124 120
    endloop
  endfacet
  facet normal 0 1 2.22045e-16
    outer loop
      vertex 123.9 128 116.1
      vertex 122 128 116.1
      vertex 123.9 128 120
    endloop
  endfacet
  facet normal 0 1 2.22045e-16
    outer loop
      vertex 123.9 128 120
      vertex 122 128 116.1
      vertex 122 128 120
    endloop
  endfacet
  facet normal 0 -2.22045e-16 -1
    outer loop
      vertex 123.9 128 116.1
      vertex 123.9 -124 116.1
      vertex 122 128 116.1
    endloop
  endfacet
  facet normal 0 -2.22045e-16 -1
    outer loop
      vertex 122 128 116.1
      vertex 123.9 -124 116.1
      vertex 122 -124 116.1
    endloop
  endfacet
  facet normal 1 0 0
    outer loop
      vertex 123.9 -124 116.1
      vertex 123.9 128 116.1
      vertex 123.9 128 120
    endloop
  endfacet
  facet normal 1 0 0
    outer loop
      vertex 123.9 -124 120
      vertex 123.9 -124 116.1
      vertex 123.9 128 120
    endloop
  endfacet
  facet normal 4.93038e-32 -1 2.22045e-16
    outer loop
      vertex 117.9 124 118
      vertex 122 124 116
      vertex 122 124 119.9
    endloop
  endfacet
  facet normal 4.93038e-32 -1 2.22045e-16
    outer loop
      vertex -122 124 119.9
      vertex -122 124 116
      vertex 122 124 119.9
    endloop
  endfacet
  facet normal 4.93038e-32 -1 2.22045e-16
    outer loop
      vertex -122 124 116
      vertex 116 124 118
      vertex 122 124 119.9
    endloop
  endfacet
  facet normal 4.93038e-32 -1 2.22045e-16
    outer loop
      vertex 116 124 118
      vertex 117.9 124 118
      vertex 122 124 119.9
    endloop
  endfacet
  facet normal 4.93038e-32 -1 2.22045e-16
    outer loop
      vertex -122 124 116
      vertex 122 124 116
      vertex 117.9 124 116.1
    endloop
  endfacet
  facet normal 4.93038e-32 -1 2.22045e-16
    outer loop
      vertex -122 124 116
      vertex 116 124 116.1
      vertex 116 124 118
    endloop
  endfacet
  facet normal 4.93038e-32 -1 2.22045e-16
    outer loop
      vertex -122 124 116
      vertex 117.9 124 116.1
      vertex 116 124 116.1
    endloop
  endfacet
  facet normal 4.93038e-32 -1 2.22045e-16
    outer loop
      vertex 117.9 124 118
      vertex 117.9 124 116.1
      vertex 122 124 116
    endloop
  endfacet
  facet normal -1 0 -2.22045e-16
    outer loop
      vertex -122 125.9 116
      vertex -122 124 116
      vertex -122 125.9 119.9
    endloop
  endfacet
  facet normal -1 0 -2.22045e-16
    outer loop
      vertex -122 125.9 119.9
      vertex -122 124 116
      vertex -122 124 119.9
    endloop
  endfacet
  facet normal 2.22045e-16 2.22045e-16 1
    outer loop
      vertex 122 124 119.9
      vertex 122 125.9 119.9
      vertex -122 125.9 119.9
    endloop
  endfacet
  facet normal 2.22045e-16 2.22045e-16 1
    outer loop
      vertex -122 124 119.9
      vertex 122 124 119.9
      vertex -122 125.9 119.9
    endloop
  endfacet
  facet normal -2.22045e-16 -2.22045e-16 -1
    outer loop
      vertex 122 125.9 116
      vertex 122 124 116
      vertex -122 125.9 116
    endloop
  endfacet
  facet normal -2.22045e-16 -2.22045e-16 -1
    outer loop
      vertex -122 125.9 116
      vertex 122 124 116
      vertex -122 124 116
    endloop
  endfacet
  facet normal 1 0 2.22045e-16
    outer loop
      vertex 122 124 116
      vertex 122 125.9 116
      vertex 122 125.9 119.9
    endloop
  endfacet
  facet normal 1 0 2.22045e-16
    outer loop
      vertex 122 124 119.9
      vertex 122 124 116
      vertex 122 125.9 119.9
    endloop
  endfacet
  facet normal -1 0 0
    outer loop
      vertex 116 124 118
      vertex 116 124 116.1
      vertex 116 124 120
    endloop
  endfacet
  facet normal -1 0 0
    outer loop
      vertex 116 124 120
      vertex 116 124 116.1
      vertex 116 -120 116.1
    endloop
  endfacet
  facet normal -1 0 0
    outer loop
      vertex 116 124 120
      vertex 116 -120 116.1
      vertex 116 -120 120
    endloop
  endfacet
  facet normal 0 1 2.22045e-16
    outer loop
      vertex 117.9 124 118
      vertex 116 124 118
      vertex 117.9 124 120
    endloop
  endfacet
  facet normal 0 1 2.22045e-16
    outer loop
      vertex 117.9 124 120
      vertex 116 124 118
      vertex 116 124 120
    endloop
  endfacet
  facet normal 0 -2.22045e-16 -1
    outer loop
      vertex 117.9 124 116.1
      vertex 117.9 -120 116.1
      vertex 116 124 116.1
    endloop
  endfacet
  facet normal 0 -2.22045e-16 -1
    outer loop
      vertex 116 124 116.1
      vertex 117.9 -120 116.1
      vertex 116 -120 116.1
    endloop
  endfacet
  facet normal 1 0 0
    outer loop
      vertex 117.9 -120 116.1
      vertex 117.9 124 116.1
      vertex 117.9 124 118
    endloop
  endfacet
  facet normal 1 0 0
    outer loop
      vertex 117.9 -120 120
      vertex 117.9 -120 116.1
      vertex 117.9 124 120
    endloop
  endfacet
  facet normal 1 0 0
    outer loop
      vertex 117.9 124 120
      vertex 117.9 -120 116.1
      vertex 117.9 124 118
    endloop
  endfacet
  facet normal -4.93038e-32 1 -2.22045e-16
    outer loop
      vertex 122 125.9 116
      vertex -122 125.9 116
      vertex 122 125.9 119.9
    endloop
  endfacet
  facet normal -4.93038e-32 1 -2.22045e-16
    outer loop
      vertex 122 125.9 119.9
      vertex -122 125.9 116
      vertex -122 125.9 119.9
    endloop
  endfacet
  facet normal 0 2.22045e-16 1
    outer loop
      vertex 117.9 -120 120
      vertex 117.9 124 120
      vertex 116 124 120
    endloop
  endfacet
  facet normal 0 2.22045e-16 1
    outer loop
      vertex 116 -120 120
      vertex 117.9 -120 120
      vertex 116 124 120
    endloop
  endfacet
  facet normal 0 -1 -2.22045e-16
    outer loop
      vertex 116 -120 116.1
      vertex 117.9 -120 116.1
      vertex 117.9 -120 120
    endloop
  endfacet
  facet normal 0 -1 -2.22045e-16
    outer loop
      vertex 116 -120 120
      vertex 116 -120 116.1
      vertex 117.9 -120 120
    endloop
  endfacet
  facet normal 4.93038e-32 -1 2.22045e-16
    outer loop
      vertex -122 126 116
      vertex 122 126 116
      vertex 122 126 119.9
    endloop
  endfacet
  facet normal 4.93038e-32 -1 2.22045e-16
    outer loop
      vertex -122 126 119.9
      vertex -122 126 116
      vertex 122 126 119.9
    endloop
  endfacet
  facet normal -1 0 -2.22045e-16
    outer loop
      vertex -122 127.9 116
      vertex -122 126 116
      vertex -122 127.9 119.9
    endloop
  endfacet
  facet normal -1 0 -2.22045e-16
    outer loop
      vertex -122 127.9 119.9
      vertex -122 126 116
      vertex -122 126 119.9
    endloop
  endfacet
  facet normal 2.22045e-16 2.22045e-16 1
    outer loop
      vertex 122 126 119.9
      vertex 122 127.9 119.9
      vertex -122 127.9 119.9
    endloop
  endfacet
  facet normal 2.22045e-16 2.22045e-16 1
    outer loop
      vertex -122 126 119.9
      vertex 122 126 119.9
      vertex -122 127.9 119.9
    endloop
  endfacet
  facet normal -2.22045e-16 -2.22045e-16 -1
    outer loop
      vertex 122 127.9 116
      vertex 122 126 116
      vertex -122 127.9 116
    endloop
  endfacet
  facet normal -2.22045e-16 -2.22045e-16 -1
    outer loop
      vertex -122 127.9 116
      vertex 122 126 116
      vertex -122 126 116
    endloop
  endfacet
  facet normal 1 0 2.22045e-16
    outer loop
      vertex 122 126 116
      vertex 122 127.9 116
      vertex 122 127.9 119.9
    endloop
  endfacet
  facet normal 1 0 2.22045e-16
    outer loop
      vertex 122 126 119.9
      vertex 122 126 116
      vertex 122 127.9 119.9
    endloop
  endfacet
  facet normal -4.93038e-32 1 -2.22045e-16
    outer loop
      vertex 122 127.9 116
      vertex -122 127.9 116
      vertex 122 127.9 119.9
    endloop
  endfacet
  facet normal -4.93038e-32 1 -2.22045e-16
    outer loop
      vertex 122 127.9 119.9
      vertex -122 127.9 116
      vertex -122 127.9 119.9
    endloop
  endfacet
  facet normal 4.93038e-32 -1 2.22045e-16
    outer loop
      vertex -122 -122 116
      vertex 122 -122 116
      vertex 122 -122 119.9
    endloop
  endfacet
  facet normal 4.93038e-32 -1 2.22045e-16
    outer loop
      vertex -122 -122 119.9
      vertex -122 -122 116
      vertex 122 -122 119.9
    endloop
  endfacet
  facet normal -1 0 -2.22045e-16
    outer loop
      vertex -122 -120.1 116
      vertex -122 -122 116
      vertex -122 -120.1 119.9
    endloop
  endfacet
  facet normal -1 0 -2.22045e-16
    outer loop
      vertex -122 -120.1 119.9
      vertex -122 -122 116
      vertex -122 -122 119.9
    endloop
  endfacet
  facet normal 2.22045e-16 2.22045e-16 1
    outer loop
      vertex 122 -122 119.9
      vertex 122 -120.1 119.9
      vertex -122 -120.1 119.9
    endloop
  endfacet
  facet normal 2.22045e-16 2.22045e-16 1
    outer loop
      vertex -122 -122 119.9
      vertex 122 -122 119.9
      vertex -122 -120.1 119.9
    endloop
  endfacet
  facet normal -2.22045e-16 -2.22045e-16 -1
    outer loop
      vertex 122 -120.1 116
      vertex 122 -122 116
      vertex -122 -120.1 116
    endloop
  endfacet
  facet normal -2.22045e-16 -2.22045e-16 -1
    outer loop
      vertex -122 -120.1 116
      vertex 122 -122 116
      vertex -122 -122 116
    endloop
  endfacet
  facet normal 1 0 2.22045e-16
    outer loop
      vertex 122 -122 116
      vertex 122 -120.1 116
      vertex 122 -120.1 119.9
    endloop
  endfacet
  facet normal 1 0 2.22045e-16
    outer loop
      vertex 122 -122 119.9
      vertex 122 -122 116
      vertex 122 -120.1 119.9
    endloop
  endfacet
  facet normal -4.93038e-32 1 -2.22045e-16
    outer loop
      vertex 122 -120.1 116
      vertex -122 -120.1 116
      vertex 122 -120.1 119.9
    endloop
  endfacet
  facet normal -4.93038e-32 1 -2.22045e-16
    outer loop
      vertex 122 -120.1 119.9
      vertex -122 -120.1 116
      vertex -122 -120.1 119.9
    endloop
  endfacet
  facet normal 4.93038e-32 -1 2.22045e-16
    outer loop
      vertex -122 -124 116
      vertex 122 -124 116
      vertex 122 -124 119.9
    endloop
  endfacet
  facet normal 4.93038e-32 -1 2.22045e-16
    outer loop
      vertex -122 -124 119.9
      vertex -122 -124 116
      vertex 122 -124 119.9
    endloop
  endfacet
  facet normal -1 0 -2.22045e-16
    outer loop
      vertex -122 -122.1 116
      vertex -122 -124 116
      vertex -122 -122.1 119.9
    endloop
  endfacet
  facet normal -1 0 -2.22045e-16
    outer loop
      vertex -122 -122.1 119.9
      vertex -122 -124 116
      vertex -122 -124 119.9
    endloop
  endfacet
  facet normal 2.22045e-16 2.22045e-16 1
    outer loop
      vertex 122 -124 119.9
      vertex 122 -122.1 119.9
      vertex -122 -122.1 119.9
    endloop
  endfacet
  facet normal 2.22045e-16 2.22045e-16 1
    outer loop
      vertex -122 -124 119.9
      vertex 122 -124 119.9
      vertex -122 -122.1 119.9
    endloop
  endfacet
  facet normal -2.22045e-16 -2.22045e-16 -1
    outer loop
      vertex 122 -122.1 116
      vertex 122 -124 116
      vertex -122 -122.1 116
    endloop
  endfacet
  facet normal -2.22045e-16 -2.22045e-16 -1
    outer loop
      vertex -122 -122.1 116
      vertex 122 -124 116
      vertex -122 -124 116
    endloop
  endfacet
  facet normal 1 0 2.22045e-16
    outer loop
      vertex 122 -124 116
      vertex 122 -122.1 116
      vertex 122 -122.1 119.9
    endloop
  endfacet
  facet normal 1 0 2.22045e-16
    outer loop
      vertex 122 -124 119.9
      vertex 122 -124 116
      vertex 122 -122.1 119.9
    endloop
  endfacet
  facet normal -4.93038e-32 1 -2.22045e-16
    outer loop
      vertex 122 -122.1 116
      vertex -122 -122.1 116
      vertex 122 -122.1 119.9
    endloop
  endfacet
  facet normal -4.93038e-32 1 -2.22045e-16
    outer loop
      vertex 122 -122.1 119.9
      vertex -122 -122.1 116
      vertex -122 -122.1 119.9
    endloop
  endfacet
endsolid OpenSCAD_Model
