solid OpenSCAD_Model
  facet normal -1 0 0
    outer loop
      vertex 120 120 0
      vertex 120 120 191.9
      vertex 120 123.9 0
    endloop
  endfacet
  facet normal -1 0 0
    outer loop
      vertex 120 123.9 0
      vertex 120 120 191.9
      vertex 120 123.9 191.9
    endloop
  endfacet
  facet normal 0 -1 0
    outer loop
      vertex 120 120 191.9
      vertex 120 120 0
      vertex 121.9 120 0
    endloop
  endfacet
  facet normal 0 -1 0
    outer loop
      vertex 121.9 120 191.9
      vertex 120 120 191.9
      vertex 121.9 120 0
    endloop
  endfacet
  facet normal 0 0 -1
    outer loop
      vertex 120 120 0
      vertex 120 123.9 0
      vertex 121.9 120 0
    endloop
  endfacet
  facet normal 0 0 -1
    outer loop
      vertex 121.9 120 0
      vertex 120 123.9 0
      vertex 121.9 123.9 0
    endloop
  endfacet
  facet normal 0 1 0
    outer loop
      vertex 120 123.9 0
      vertex 120 123.9 191.9
      vertex 121.9 123.9 0
    endloop
  endfacet
  facet normal 0 1 0
    outer loop
      vertex 121.9 123.9 0
      vertex 120 123.9 191.9
      vertex 121.9 123.9 191.9
    endloop
  endfacet
  facet normal 0 0 1
    outer loop
      vertex 120 123.9 191.9
      vertex 120 120 191.9
      vertex 121.9 120 191.9
    endloop
  endfacet
  facet normal 0 0 1
    outer loop
      vertex 121.9 123.9 191.9
      vertex 120 123.9 191.9
      vertex 121.9 120 191.9
    endloop
  endfacet
  facet normal 1 0 0
    outer loop
      vertex 121.9 120 191.9
      vertex 121.9 120 0
      vertex 121.9 123.9 0
    endloop
  endfacet
  facet normal 1 0 0
    outer loop
      vertex 121.9 123.9 191.9
      vertex 121.9 120 191.9
      vertex 121.9 123.9 0
    endloop
  endfacet
  facet normal -1 0 0
    outer loop
      vertex 118 120 0
      vertex 118 120 191.9
      vertex 118 123.9 0
    endloop
  endfacet
  facet normal -1 0 0
    outer loop
      vertex 118 123.9 0
      vertex 118 120 191.9
      vertex 118 123.9 191.9
    endloop
  endfacet
  facet normal 0 -1 0
    outer loop
      vertex 118 120 191.9
      vertex 118 120 0
      vertex 119.9 120 0
    endloop
  endfacet
  facet normal 0 -1 0
    outer loop
      vertex 119.9 120 191.9
      vertex 118 120 191.9
      vertex 119.9 120 0
    endloop
  endfacet
  facet normal 0 0 -1
    outer loop
      vertex 118 120 0
      vertex 118 123.9 0
      vertex 119.9 120 0
    endloop
  endfacet
  facet normal 0 0 -1
    outer loop
      vertex 119.9 120 0
      vertex 118 123.9 0
      vertex 119.9 123.9 0
    endloop
  endfacet
  facet normal 0 1 0
    outer loop
      vertex 118 123.9 0
      vertex 118 123.9 191.9
      vertex 119.9 123.9 0
    endloop
  endfacet
  facet normal 0 1 0
    outer loop
      vertex 119.9 123.9 0
      vertex 118 123.9 191.9
      vertex 119.9 123.9 191.9
    endloop
  endfacet
  facet normal 0 0 1
    outer loop
      vertex 118 123.9 191.9
      vertex 118 120 191.9
      vertex 119.9 120 191.9
    endloop
  endfacet
  facet normal 0 0 1
    outer loop
      vertex 119.9 123.9 191.9
      vertex 118 123.9 191.9
      vertex 119.9 120 191.9
    endloop
  endfacet
  facet normal 1 0 0
    outer loop
      vertex 119.9 120 191.9
      vertex 119.9 120 0
      vertex 119.9 123.9 0
    endloop
  endfacet
  facet normal 1 0 0
    outer loop
      vertex 119.9 123.9 191.9
      vertex 119.9 120 191.9
      vertex 119.9 123.9 0
    endloop
  endfacet
  facet normal -1 0 0
    outer loop
      vertex 120 -120 0
      vertex 120 -120 95.9
      vertex 120 -116.1 0
    endloop
  endfacet
  facet normal -1 0 0
    outer loop
      vertex 120 -116.1 0
      vertex 120 -120 95.9
      vertex 120 -116.1 95.9
    endloop
  endfacet
  facet normal 0 -1 0
    outer loop
      vertex 120 -120 95.9
      vertex 120 -120 0
      vertex 121.9 -120 0
    endloop
  endfacet
  facet normal 0 -1 0
    outer loop
      vertex 121.9 -120 95.9
      vertex 120 -120 95.9
      vertex 121.9 -120 0
    endloop
  endfacet
  facet normal 0 0 -1
    outer loop
      vertex 120 -120 0
      vertex 120 -116.1 0
      vertex 121.9 -120 0
    endloop
  endfacet
  facet normal 0 0 -1
    outer loop
      vertex 121.9 -120 0
      vertex 120 -116.1 0
      vertex 121.9 -116.1 0
    endloop
  endfacet
  facet normal 0 1 0
    outer loop
      vertex 120 -116.1 0
      vertex 120 -116.1 95.9
      vertex 121.9 -116.1 0
    endloop
  endfacet
  facet normal 0 1 0
    outer loop
      vertex 121.9 -116.1 0
      vertex 120 -116.1 95.9
      vertex 121.9 -116.1 95.9
    endloop
  endfacet
  facet normal 0 0 1
    outer loop
      vertex 120 -116.1 95.9
      vertex 120 -120 95.9
      vertex 121.9 -120 95.9
    endloop
  endfacet
  facet normal 0 0 1
    outer loop
      vertex 121.9 -116.1 95.9
      vertex 120 -116.1 95.9
      vertex 121.9 -120 95.9
    endloop
  endfacet
  facet normal 1 0 0
    outer loop
      vertex 121.9 -120 95.9
      vertex 121.9 -120 0
      vertex 121.9 -116.1 0
    endloop
  endfacet
  facet normal 1 0 0
    outer loop
      vertex 121.9 -116.1 95.9
      vertex 121.9 -120 95.9
      vertex 121.9 -116.1 0
    endloop
  endfacet
  facet normal -1 0 0
    outer loop
      vertex 118 -120 0
      vertex 118 -120 95.9
      vertex 118 -116.1 0
    endloop
  endfacet
  facet normal -1 0 0
    outer loop
      vertex 118 -116.1 0
      vertex 118 -120 95.9
      vertex 118 -116.1 95.9
    endloop
  endfacet
  facet normal 0 -1 0
    outer loop
      vertex 118 -120 95.9
      vertex 118 -120 0
      vertex 119.9 -120 0
    endloop
  endfacet
  facet normal 0 -1 0
    outer loop
      vertex 119.9 -120 95.9
      vertex 118 -120 95.9
      vertex 119.9 -120 0
    endloop
  endfacet
  facet normal 0 0 -1
    outer loop
      vertex 118 -120 0
      vertex 118 -116.1 0
      vertex 119.9 -120 0
    endloop
  endfacet
  facet normal 0 0 -1
    outer loop
      vertex 119.9 -120 0
      vertex 118 -116.1 0
      vertex 119.9 -116.1 0
    endloop
  endfacet
  facet normal 0 1 0
    outer loop
      vertex 118 -116.1 0
      vertex 118 -116.1 95.9
      vertex 119.9 -116.1 0
    endloop
  endfacet
  facet normal 0 1 0
    outer loop
      vertex 119.9 -116.1 0
      vertex 118 -116.1 95.9
      vertex 119.9 -116.1 95.9
    endloop
  endfacet
  facet normal 0 0 1
    outer loop
      vertex 118 -116.1 95.9
      vertex 118 -120 95.9
      vertex 119.9 -120 95.9
    endloop
  endfacet
  facet normal 0 0 1
    outer loop
      vertex 119.9 -116.1 95.9
      vertex 118 -116.1 95.9
      vertex 119.9 -120 95.9
    endloop
  endfacet
  facet normal 1 0 0
    outer loop
      vertex 119.9 -120 95.9
      vertex 119.9 -120 0
      vertex 119.9 -116.1 0
    endloop
  endfacet
  facet normal 1 0 0
    outer loop
      vertex 119.9 -116.1 95.9
      vertex 119.9 -120 95.9
      vertex 119.9 -116.1 0
    endloop
  endfacet
  facet normal -1 0 0
    outer loop
      vertex -120 -120 0
      vertex -120 -120 95.9
      vertex -120 -116.1 0
    endloop
  endfacet
  facet normal -1 0 0
    outer loop
      vertex -120 -116.1 0
      vertex -120 -120 95.9
      vertex -120 -116.1 95.9
    endloop
  endfacet
  facet normal 0 -1 0
    outer loop
      vertex -120 -120 95.9
      vertex -120 -120 0
      vertex -118.1 -120 0
    endloop
  endfacet
  facet normal 0 -1 0
    outer loop
      vertex -118.1 -120 95.9
      vertex -120 -120 95.9
      vertex -118.1 -120 0
    endloop
  endfacet
  facet normal 0 0 -1
    outer loop
      vertex -120 -120 0
      vertex -120 -116.1 0
      vertex -118.1 -120 0
    endloop
  endfacet
  facet normal 0 0 -1
    outer loop
      vertex -118.1 -120 0
      vertex -120 -116.1 0
      vertex -118.1 -116.1 0
    endloop
  endfacet
  facet normal 0 1 0
    outer loop
      vertex -120 -116.1 0
      vertex -120 -116.1 95.9
      vertex -118.1 -116.1 0
    endloop
  endfacet
  facet normal 0 1 0
    outer loop
      vertex -118.1 -116.1 0
      vertex -120 -116.1 95.9
      vertex -118.1 -116.1 95.9
    endloop
  endfacet
  facet normal 0 0 1
    outer loop
      vertex -120 -116.1 95.9
      vertex -120 -120 95.9
      vertex -118.1 -120 95.9
    endloop
  endfacet
  facet normal 0 0 1
    outer loop
      vertex -118.1 -116.1 95.9
      vertex -120 -116.1 95.9
      vertex -118.1 -120 95.9
    endloop
  endfacet
  facet normal 1 0 0
    outer loop
      vertex -118.1 -120 95.9
      vertex -118.1 -120 0
      vertex -118.1 -116.1 0
    endloop
  endfacet
  facet normal 1 0 0
    outer loop
      vertex -118.1 -116.1 95.9
      vertex -118.1 -120 95.9
      vertex -118.1 -116.1 0
    endloop
  endfacet
  facet normal -1 0 0
    outer loop
      vertex -122 -120 0
      vertex -122 -120 95.9
      vertex -122 -116.1 0
    endloop
  endfacet
  facet normal -1 0 0
    outer loop
      vertex -122 -116.1 0
      vertex -122 -120 95.9
      vertex -122 -116.1 95.9
    endloop
  endfacet
  facet normal 0 -1 0
    outer loop
      vertex -122 -120 95.9
      vertex -122 -120 0
      vertex -120.1 -120 0
    endloop
  endfacet
  facet normal 0 -1 0
    outer loop
      vertex -120.1 -120 95.9
      vertex -122 -120 95.9
      vertex -120.1 -120 0
    endloop
  endfacet
  facet normal 0 0 -1
    outer loop
      vertex -122 -120 0
      vertex -122 -116.1 0
      vertex -120.1 -120 0
    endloop
  endfacet
  facet normal 0 0 -1
    outer loop
      vertex -120.1 -120 0
      vertex -122 -116.1 0
      vertex -120.1 -116.1 0
    endloop
  endfacet
  facet normal 0 1 0
    outer loop
      vertex -122 -116.1 0
      vertex -122 -116.1 95.9
      vertex -120.1 -116.1 0
    endloop
  endfacet
  facet normal 0 1 0
    outer loop
      vertex -120.1 -116.1 0
      vertex -122 -116.1 95.9
      vertex -120.1 -116.1 95.9
    endloop
  endfacet
  facet normal 0 0 1
    outer loop
      vertex -122 -116.1 95.9
      vertex -122 -120 95.9
      vertex -120.1 -120 95.9
    endloop
  endfacet
  facet normal 0 0 1
    outer loop
      vertex -120.1 -116.1 95.9
      vertex -122 -116.1 95.9
      vertex -120.1 -120 95.9
    endloop
  endfacet
  facet normal 1 0 0
    outer loop
      vertex -120.1 -120 95.9
      vertex -120.1 -120 0
      vertex -120.1 -116.1 0
    endloop
  endfacet
  facet normal 1 0 0
    outer loop
      vertex -120.1 -116.1 95.9
      vertex -120.1 -120 95.9
      vertex -120.1 -116.1 0
    endloop
  endfacet
  facet normal -1 0 0
    outer loop
      vertex -120 120 0
      vertex -120 120 191.9
      vertex -120 123.9 0
    endloop
  endfacet
  facet normal -1 0 0
    outer loop
      vertex -120 123.9 0
      vertex -120 120 191.9
      vertex -120 123.9 191.9
    endloop
  endfacet
  facet normal 0 -1 0
    outer loop
      vertex -120 120 191.9
      vertex -120 120 0
      vertex -118.1 120 0
    endloop
  endfacet
  facet normal 0 -1 0
    outer loop
      vertex -118.1 120 191.9
      vertex -120 120 191.9
      vertex -118.1 120 0
    endloop
  endfacet
  facet normal 0 0 -1
    outer loop
      vertex -120 120 0
      vertex -120 123.9 0
      vertex -118.1 120 0
    endloop
  endfacet
  facet normal 0 0 -1
    outer loop
      vertex -118.1 120 0
      vertex -120 123.9 0
      vertex -118.1 123.9 0
    endloop
  endfacet
  facet normal 0 1 0
    outer loop
      vertex -120 123.9 0
      vertex -120 123.9 191.9
      vertex -118.1 123.9 0
    endloop
  endfacet
  facet normal 0 1 0
    outer loop
      vertex -118.1 123.9 0
      vertex -120 123.9 191.9
      vertex -118.1 123.9 191.9
    endloop
  endfacet
  facet normal 0 0 1
    outer loop
      vertex -120 123.9 191.9
      vertex -120 120 191.9
      vertex -118.1 120 191.9
    endloop
  endfacet
  facet normal 0 0 1
    outer loop
      vertex -118.1 123.9 191.9
      vertex -120 123.9 191.9
      vertex -118.1 120 191.9
    endloop
  endfacet
  facet normal 1 0 0
    outer loop
      vertex -118.1 120 191.9
      vertex -118.1 120 0
      vertex -118.1 123.9 0
    endloop
  endfacet
  facet normal 1 0 0
    outer loop
      vertex -118.1 123.9 191.9
      vertex -118.1 120 191.9
      vertex -118.1 123.9 0
    endloop
  endfacet
  facet normal -1 0 0
    outer loop
      vertex -122 120 0
      vertex -122 120 191.9
      vertex -122 123.9 0
    endloop
  endfacet
  facet normal -1 0 0
    outer loop
      vertex -122 123.9 0
      vertex -122 120 191.9
      vertex -122 123.9 191.9
    endloop
  endfacet
  facet normal 0 -1 0
    outer loop
      vertex -122 120 191.9
      vertex -122 120 0
      vertex -120.1 120 0
    endloop
  endfacet
  facet normal 0 -1 0
    outer loop
      vertex -120.1 120 191.9
      vertex -122 120 191.9
      vertex -120.1 120 0
    endloop
  endfacet
  facet normal 0 0 -1
    outer loop
      vertex -122 120 0
      vertex -122 123.9 0
      vertex -120.1 120 0
    endloop
  endfacet
  facet normal 0 0 -1
    outer loop
      vertex -120.1 120 0
      vertex -122 123.9 0
      vertex -120.1 123.9 0
    endloop
  endfacet
  facet normal 0 1 0
    outer loop
      vertex -122 123.9 0
      vertex -122 123.9 191.9
      vertex -120.1 123.9 0
    endloop
  endfacet
  facet normal 0 1 0
    outer loop
      vertex -120.1 123.9 0
      vertex -122 123.9 191.9
      vertex -120.1 123.9 191.9
    endloop
  endfacet
  facet normal 0 0 1
    outer loop
      vertex -122 123.9 191.9
      vertex -122 120 191.9
      vertex -120.1 120 191.9
    endloop
  endfacet
  facet normal 0 0 1
    outer loop
      vertex -120.1 123.9 191.9
      vertex -122 123.9 191.9
      vertex -120.1 120 191.9
    endloop
  endfacet
  facet normal 1 0 0
    outer loop
      vertex -120.1 120 191.9
      vertex -120.1 120 0
      vertex -120.1 123.9 0
    endloop
  endfacet
  facet normal 1 0 0
    outer loop
      vertex -120.1 123.9 191.9
      vertex -120.1 120 191.9
      vertex -120.1 123.9 0
    endloop
  endfacet
  facet normal -2.22045e-16 -1 0
    outer loop
      vertex -1.9 122 191.9
      vertex -1.9 122 0
      vertex 2 122 0
    endloop
  endfacet
  facet normal -2.22045e-16 -1 0
    outer loop
      vertex 2 122 191.9
      vertex -1.9 122 191.9
      vertex 2 122 0
    endloop
  endfacet
  facet normal 0 0 -1
    outer loop
      vertex -1.9 122 0
      vertex -1.9 123.9 0
      vertex 2 122 0
    endloop
  endfacet
  facet normal 0 0 -1
    outer loop
      vertex 2 122 0
      vertex -1.9 123.9 0
      vertex 2 123.9 0
    endloop
  endfacet
  facet normal -1 2.22045e-16 0
    outer loop
      vertex -1.9 122 0
      vertex -1.9 122 191.9
      vertex -1.9 123.9 0
    endloop
  endfacet
  facet normal -1 2.22045e-16 0
    outer loop
      vertex -1.9 123.9 0
      vertex -1.9 122 191.9
      vertex -1.9 123.9 191.9
    endloop
  endfacet
  facet normal 0 0 1
    outer loop
      vertex -1.9 123.9 191.9
      vertex -1.9 122 191.9
      vertex 2 122 191.9
    endloop
  endfacet
  facet normal 0 0 1
    outer loop
      vertex 2 123.9 191.9
      vertex -1.9 123.9 191.9
      vertex 2 122 191.9
    endloop
  endfacet
  facet normal 1 -2.22045e-16 0
    outer loop
      vertex 2 122 191.9
      vertex 2 122 0
      vertex 2 123.9 0
    endloop
  endfacet
  facet normal 1 -2.22045e-16 0
    outer loop
      vertex 2 123.9 191.9
      vertex 2 122 191.9
      vertex 2 123.9 0
    endloop
  endfacet
  facet normal 2.22045e-16 1 0
    outer loop
      vertex -1.9 123.9 0
      vertex -1.9 123.9 191.9
      vertex 2 123.9 0
    endloop
  endfacet
  facet normal 2.22045e-16 1 0
    outer loop
      vertex 2 123.9 0
      vertex -1.9 123.9 191.9
      vertex 2 123.9 191.9
    endloop
  endfacet
  facet normal -2.22045e-16 -1 0
    outer loop
      vertex -1.9 120 191.9
      vertex -1.9 120 0
      vertex 2 120 0
    endloop
  endfacet
  facet normal -2.22045e-16 -1 0
    outer loop
      vertex 2 120 191.9
      vertex -1.9 120 191.9
      vertex 2 120 0
    endloop
  endfacet
  facet normal 0 0 -1
    outer loop
      vertex -1.9 120 0
      vertex -1.9 121.9 0
      vertex 2 120 0
    endloop
  endfacet
  facet normal 0 0 -1
    outer loop
      vertex 2 120 0
      vertex -1.9 121.9 0
      vertex 2 121.9 0
    endloop
  endfacet
  facet normal -1 2.22045e-16 0
    outer loop
      vertex -1.9 120 0
      vertex -1.9 120 191.9
      vertex -1.9 121.9 0
    endloop
  endfacet
  facet normal -1 2.22045e-16 0
    outer loop
      vertex -1.9 121.9 0
      vertex -1.9 120 191.9
      vertex -1.9 121.9 191.9
    endloop
  endfacet
  facet normal 0 0 1
    outer loop
      vertex -1.9 121.9 191.9
      vertex -1.9 120 191.9
      vertex 2 120 191.9
    endloop
  endfacet
  facet normal 0 0 1
    outer loop
      vertex 2 121.9 191.9
      vertex -1.9 121.9 191.9
      vertex 2 120 191.9
    endloop
  endfacet
  facet normal 1 -2.22045e-16 0
    outer loop
      vertex 2 120 191.9
      vertex 2 120 0
      vertex 2 121.9 0
    endloop
  endfacet
  facet normal 1 -2.22045e-16 0
    outer loop
      vertex 2 121.9 191.9
      vertex 2 120 191.9
      vertex 2 121.9 0
    endloop
  endfacet
  facet normal 2.22045e-16 1 0
    outer loop
      vertex -1.9 121.9 0
      vertex -1.9 121.9 191.9
      vertex 2 121.9 0
    endloop
  endfacet
  facet normal 2.22045e-16 1 0
    outer loop
      vertex 2 121.9 0
      vertex -1.9 121.9 191.9
      vertex 2 121.9 191.9
    endloop
  endfacet
  facet normal -2.22045e-16 -1 0
    outer loop
      vertex -1.9 -118 95.9
      vertex -1.9 -118 0
      vertex 2 -118 0
    endloop
  endfacet
  facet normal -2.22045e-16 -1 0
    outer loop
      vertex 2 -118 95.9
      vertex -1.9 -118 95.9
      vertex 2 -118 0
    endloop
  endfacet
  facet normal 0 0 -1
    outer loop
      vertex -1.9 -118 0
      vertex -1.9 -116.1 0
      vertex 2 -118 0
    endloop
  endfacet
  facet normal 0 0 -1
    outer loop
      vertex 2 -118 0
      vertex -1.9 -116.1 0
      vertex 2 -116.1 0
    endloop
  endfacet
  facet normal -1 2.22045e-16 0
    outer loop
      vertex -1.9 -118 0
      vertex -1.9 -118 95.9
      vertex -1.9 -116.1 0
    endloop
  endfacet
  facet normal -1 2.22045e-16 0
    outer loop
      vertex -1.9 -116.1 0
      vertex -1.9 -118 95.9
      vertex -1.9 -116.1 95.9
    endloop
  endfacet
  facet normal 0 0 1
    outer loop
      vertex -1.9 -116.1 95.9
      vertex -1.9 -118 95.9
      vertex 2 -118 95.9
    endloop
  endfacet
  facet normal 0 0 1
    outer loop
      vertex 2 -116.1 95.9
      vertex -1.9 -116.1 95.9
      vertex 2 -118 95.9
    endloop
  endfacet
  facet normal 1 -2.22045e-16 0
    outer loop
      vertex 2 -118 95.9
      vertex 2 -118 0
      vertex 2 -116.1 0
    endloop
  endfacet
  facet normal 1 -2.22045e-16 0
    outer loop
      vertex 2 -116.1 95.9
      vertex 2 -118 95.9
      vertex 2 -116.1 0
    endloop
  endfacet
  facet normal 2.22045e-16 1 0
    outer loop
      vertex -1.9 -116.1 0
      vertex -1.9 -116.1 95.9
      vertex 2 -116.1 0
    endloop
  endfacet
  facet normal 2.22045e-16 1 0
    outer loop
      vertex 2 -116.1 0
      vertex -1.9 -116.1 95.9
      vertex 2 -116.1 95.9
    endloop
  endfacet
  facet normal -2.22045e-16 -1 0
    outer loop
      vertex -1.9 -120 95.9
      vertex -1.9 -120 0
      vertex 2 -120 0
    endloop
  endfacet
  facet normal -2.22045e-16 -1 0
    outer loop
      vertex 2 -120 95.9
      vertex -1.9 -120 95.9
      vertex 2 -120 0
    endloop
  endfacet
  facet normal 0 0 -1
    outer loop
      vertex -1.9 -120 0
      vertex -1.9 -118.1 0
      vertex 2 -120 0
    endloop
  endfacet
  facet normal 0 0 -1
    outer loop
      vertex 2 -120 0
      vertex -1.9 -118.1 0
      vertex 2 -118.1 0
    endloop
  endfacet
  facet normal -1 2.22045e-16 0
    outer loop
      vertex -1.9 -120 0
      vertex -1.9 -120 95.9
      vertex -1.9 -118.1 0
    endloop
  endfacet
  facet normal -1 2.22045e-16 0
    outer loop
      vertex -1.9 -118.1 0
      vertex -1.9 -120 95.9
      vertex -1.9 -118.1 95.9
    endloop
  endfacet
  facet normal 0 0 1
    outer loop
      vertex -1.9 -118.1 95.9
      vertex -1.9 -120 95.9
      vertex 2 -120 95.9
    endloop
  endfacet
  facet normal 0 0 1
    outer loop
      vertex 2 -118.1 95.9
      vertex -1.9 -118.1 95.9
      vertex 2 -120 95.9
    endloop
  endfacet
  facet normal 1 -2.22045e-16 0
    outer loop
      vertex 2 -120 95.9
      vertex 2 -120 0
      vertex 2 -118.1 0
    endloop
  endfacet
  facet normal 1 -2.22045e-16 0
    outer loop
      vertex 2 -118.1 95.9
      vertex 2 -120 95.9
      vertex 2 -118.1 0
    endloop
  endfacet
  facet normal 2.22045e-16 1 0
    outer loop
      vertex -1.9 -118.1 0
      vertex -1.9 -118.1 95.9
      vertex 2 -118.1 0
    endloop
  endfacet
  facet normal 2.22045e-16 1 0
    outer loop
      vertex 2 -118.1 0
      vertex -1.9 -118.1 95.9
      vertex 2 -118.1 95.9
    endloop
  endfacet
  facet normal -1 0 0
    outer loop
      vertex -122 -122 92
      vertex -122 -122 95.9
      vertex -122 -120.1 92
    endloop
  endfacet
  facet normal -1 0 0
    outer loop
      vertex -122 -120.1 92
      vertex -122 -122 95.9
      vertex -122 -120.1 95.9
    endloop
  endfacet
  facet normal 0 -1 0
    outer loop
      vertex -122 -122 95.9
      vertex -122 -122 92
      vertex 121.9 -122 92
    endloop
  endfacet
  facet normal 0 -1 0
    outer loop
      vertex -118 -122 95.8996
      vertex -122 -122 95.9
      vertex 121.9 -122 92
    endloop
  endfacet
  facet normal 0 -1 0
    outer loop
      vertex 121.9 -122 95.9
      vertex 3.9 -122 95.9
      vertex 121.9 -122 92
    endloop
  endfacet
  facet normal 0 -1 0
    outer loop
      vertex 3.9 -122 95.9
      vertex 3.9 -122 95.8996
      vertex 121.9 -122 92
    endloop
  endfacet
  facet normal 0 -1 0
    outer loop
      vertex -2.1 -122 95.9
      vertex -2.1 -122 95.8996
      vertex 2 -122 95.8996
    endloop
  endfacet
  facet normal 0 -1 0
    outer loop
      vertex 3.9 -122 95.8996
      vertex 2 -122 95.8996
      vertex 121.9 -122 92
    endloop
  endfacet
  facet normal 0 -1 0
    outer loop
      vertex -116.1 -122 95.9
      vertex -116.1 -122 95.8996
      vertex -4 -122 95.8996
    endloop
  endfacet
  facet normal 0 -1 0
    outer loop
      vertex 2 -122 95.8996
      vertex -2.1 -122 95.8996
      vertex 121.9 -122 92
    endloop
  endfacet
  facet normal 0 -1 0
    outer loop
      vertex -2.1 -122 95.8996
      vertex -4 -122 95.8996
      vertex 121.9 -122 92
    endloop
  endfacet
  facet normal 0 -1 0
    outer loop
      vertex -4 -122 95.8996
      vertex -116.1 -122 95.8996
      vertex 121.9 -122 92
    endloop
  endfacet
  facet normal 0 -1 0
    outer loop
      vertex -116.1 -122 95.8996
      vertex -118 -122 95.8996
      vertex 121.9 -122 92
    endloop
  endfacet
  facet normal 0 -1 0
    outer loop
      vertex -118 -122 95.8996
      vertex -118 -122 95.9
      vertex -122 -122 95.9
    endloop
  endfacet
  facet normal 0 -1 0
    outer loop
      vertex -4 -122 95.8996
      vertex -4 -122 95.9
      vertex -116.1 -122 95.9
    endloop
  endfacet
  facet normal 0 -1 0
    outer loop
      vertex 2 -122 95.8996
      vertex 2 -122 95.9
      vertex -2.1 -122 95.9
    endloop
  endfacet
  facet normal 0 0 -1
    outer loop
      vertex -122 -122 92
      vertex -122 -120.1 92
      vertex 121.9 -122 92
    endloop
  endfacet
  facet normal 0 0 -1
    outer loop
      vertex 121.9 -122 92
      vertex -122 -120.1 92
      vertex 121.9 -120.1 92
    endloop
  endfacet
  facet normal 0 1 0
    outer loop
      vertex -122 -120.1 92
      vertex -122 -120.1 95.9
      vertex 121.9 -120.1 92
    endloop
  endfacet
  facet normal 0 1 0
    outer loop
      vertex 121.9 -120.1 92
      vertex -122 -120.1 95.9
      vertex 121.9 -120.1 95.9
    endloop
  endfacet
  facet normal 0 0 1
    outer loop
      vertex -122 -120.1 95.9
      vertex -122 -122 95.9
      vertex -118 -122 95.9
    endloop
  endfacet
  facet normal 0 0 1
    outer loop
      vertex -116.1 -121.999 95.9
      vertex -122 -120.1 95.9
      vertex -118 -121.999 95.9
    endloop
  endfacet
  facet normal 0 0 1
    outer loop
      vertex -118 -121.999 95.9
      vertex -122 -120.1 95.9
      vertex -118 -122 95.9
    endloop
  endfacet
  facet normal 0 0 1
    outer loop
      vertex -4 -122 95.9
      vertex -122 -120.1 95.9
      vertex -116.1 -121.999 95.9
    endloop
  endfacet
  facet normal 0 0 1
    outer loop
      vertex -4 -122 95.9
      vertex -116.1 -121.999 95.9
      vertex -116.1 -122 95.9
    endloop
  endfacet
  facet normal 0 0 1
    outer loop
      vertex -4 -121.999 95.9
      vertex -122 -120.1 95.9
      vertex -4 -122 95.9
    endloop
  endfacet
  facet normal 0 0 1
    outer loop
      vertex -2.1 -121.999 95.9
      vertex -122 -120.1 95.9
      vertex -4 -121.999 95.9
    endloop
  endfacet
  facet normal 0 0 1
    outer loop
      vertex 2 -122 95.9
      vertex -122 -120.1 95.9
      vertex -2.1 -121.999 95.9
    endloop
  endfacet
  facet normal 0 0 1
    outer loop
      vertex 2 -122 95.9
      vertex -2.1 -121.999 95.9
      vertex -2.1 -122 95.9
    endloop
  endfacet
  facet normal 0 0 1
    outer loop
      vertex 2 -121.999 95.9
      vertex -122 -120.1 95.9
      vertex 2 -122 95.9
    endloop
  endfacet
  facet normal 0 0 1
    outer loop
      vertex 3.9 -121.999 95.9
      vertex -122 -120.1 95.9
      vertex 2 -121.999 95.9
    endloop
  endfacet
  facet normal 0 0 1
    outer loop
      vertex 121.9 -122 95.9
      vertex -122 -120.1 95.9
      vertex 3.9 -121.999 95.9
    endloop
  endfacet
  facet normal 0 0 1
    outer loop
      vertex 121.9 -122 95.9
      vertex 3.9 -121.999 95.9
      vertex 3.9 -122 95.9
    endloop
  endfacet
  facet normal 0 0 1
    outer loop
      vertex 121.9 -120.1 95.9
      vertex -122 -120.1 95.9
      vertex 121.9 -122 95.9
    endloop
  endfacet
  facet normal -1 0 0
    outer loop
      vertex -118 -254.315 3.13845
      vertex -118 -252.404 4.54809
      vertex -118 -252 0
    endloop
  endfacet
  facet normal -1 0 0
    outer loop
      vertex -118 -252 0
      vertex -118 -252.404 4.54809
      vertex -118 -252 4
    endloop
  endfacet
  facet normal -1 0 0
    outer loop
      vertex -118 -252 0
      vertex -118 -252 4
      vertex -118 0.303352 190.122
    endloop
  endfacet
  facet normal -1 0 0
    outer loop
      vertex -118 -121.999 95.9
      vertex -118 0.303352 190.122
      vertex -118 2.21423 187.531
    endloop
  endfacet
  facet normal -1 0 0
    outer loop
      vertex -118 -122 95.9
      vertex -118 0.303352 190.122
      vertex -118 -121.999 95.9
    endloop
  endfacet
  facet normal -1 0 0
    outer loop
      vertex -118 -252 0
      vertex -118 0.303352 190.122
      vertex -118 -122 95.9
    endloop
  endfacet
  facet normal -1 0 0
    outer loop
      vertex -118 -252 0
      vertex -118 -122 95.9
      vertex -118 -122 95.8996
    endloop
  endfacet
  facet normal 0 0.593641 -0.80473
    outer loop
      vertex -118 -252 0
      vertex -118 -122 95.8996
      vertex -116.1 -252 0
    endloop
  endfacet
  facet normal 0 0.593641 -0.80473
    outer loop
      vertex -116.1 -252 0
      vertex -118 -122 95.8996
      vertex -116.1 -122 95.8996
    endloop
  endfacet
  facet normal 1 0 0
    outer loop
      vertex -116.1 -252.404 4.54809
      vertex -116.1 -254.315 3.13845
      vertex -116.1 -252 0
    endloop
  endfacet
  facet normal 1 0 0
    outer loop
      vertex -116.1 -252 4
      vertex -116.1 -252.404 4.54809
      vertex -116.1 -252 0
    endloop
  endfacet
  facet normal 1 0 0
    outer loop
      vertex -116.1 2.21423 187.531
      vertex -116.1 -122 95.9
      vertex -116.1 -121.999 95.9
    endloop
  endfacet
  facet normal 1 0 0
    outer loop
      vertex -116.1 -122 95.8996
      vertex -116.1 -252 4
      vertex -116.1 -252 0
    endloop
  endfacet
  facet normal 1 0 0
    outer loop
      vertex -116.1 0.303352 190.122
      vertex -116.1 -122 95.9
      vertex -116.1 2.21423 187.531
    endloop
  endfacet
  facet normal 1 0 0
    outer loop
      vertex -116.1 -122 95.9
      vertex -116.1 -252 4
      vertex -116.1 -122 95.8996
    endloop
  endfacet
  facet normal 1 0 0
    outer loop
      vertex -116.1 0.303352 190.122
      vertex -116.1 -252 4
      vertex -116.1 -122 95.9
    endloop
  endfacet
  facet normal -1 0 0
    outer loop
      vertex -4 -254.315 3.13845
      vertex -4 -252.404 4.54809
      vertex -4 -252 0
    endloop
  endfacet
  facet normal -1 0 0
    outer loop
      vertex -4 -252 0
      vertex -4 -252.404 4.54809
      vertex -4 -252 4
    endloop
  endfacet
  facet normal -1 0 0
    outer loop
      vertex -4 -252 0
      vertex -4 -252 4
      vertex -4 0.303352 190.122
    endloop
  endfacet
  facet normal -1 0 0
    outer loop
      vertex -4 -121.999 95.9
      vertex -4 0.303352 190.122
      vertex -4 2.21423 187.531
    endloop
  endfacet
  facet normal -1 0 0
    outer loop
      vertex -4 -122 95.9
      vertex -4 0.303352 190.122
      vertex -4 -121.999 95.9
    endloop
  endfacet
  facet normal -1 0 0
    outer loop
      vertex -4 -252 0
      vertex -4 0.303352 190.122
      vertex -4 -122 95.9
    endloop
  endfacet
  facet normal -1 0 0
    outer loop
      vertex -4 -252 0
      vertex -4 -122 95.9
      vertex -4 -122 95.8996
    endloop
  endfacet
  facet normal 0 0.593641 -0.80473
    outer loop
      vertex -4 -252 0
      vertex -4 -122 95.8996
      vertex -2.1 -252 0
    endloop
  endfacet
  facet normal 0 0.593641 -0.80473
    outer loop
      vertex -2.1 -252 0
      vertex -4 -122 95.8996
      vertex -2.1 -122 95.8996
    endloop
  endfacet
  facet normal 1 0 0
    outer loop
      vertex -2.1 -252.404 4.54809
      vertex -2.1 -254.315 3.13845
      vertex -2.1 -252 0
    endloop
  endfacet
  facet normal 1 0 0
    outer loop
      vertex -2.1 -252 4
      vertex -2.1 -252.404 4.54809
      vertex -2.1 -252 0
    endloop
  endfacet
  facet normal 1 0 0
    outer loop
      vertex -2.1 2.21423 187.531
      vertex -2.1 -122 95.9
      vertex -2.1 -121.999 95.9
    endloop
  endfacet
  facet normal 1 0 0
    outer loop
      vertex -2.1 -122 95.8996
      vertex -2.1 -252 4
      vertex -2.1 -252 0
    endloop
  endfacet
  facet normal 1 0 0
    outer loop
      vertex -2.1 0.303352 190.122
      vertex -2.1 -122 95.9
      vertex -2.1 2.21423 187.531
    endloop
  endfacet
  facet normal 1 0 0
    outer loop
      vertex -2.1 -122 95.9
      vertex -2.1 -252 4
      vertex -2.1 -122 95.8996
    endloop
  endfacet
  facet normal 1 0 0
    outer loop
      vertex -2.1 0.303352 190.122
      vertex -2.1 -252 4
      vertex -2.1 -122 95.9
    endloop
  endfacet
  facet normal -1 0 0
    outer loop
      vertex 2 -254.315 3.13845
      vertex 2 -252.404 4.54809
      vertex 2 -252 0
    endloop
  endfacet
  facet normal -1 0 0
    outer loop
      vertex 2 -252 0
      vertex 2 -252.404 4.54809
      vertex 2 -252 4
    endloop
  endfacet
  facet normal -1 0 0
    outer loop
      vertex 2 -252 0
      vertex 2 -252 4
      vertex 2 0.303352 190.122
    endloop
  endfacet
  facet normal -1 0 0
    outer loop
      vertex 2 -121.999 95.9
      vertex 2 0.303352 190.122
      vertex 2 2.21423 187.531
    endloop
  endfacet
  facet normal -1 0 0
    outer loop
      vertex 2 -122 95.9
      vertex 2 0.303352 190.122
      vertex 2 -121.999 95.9
    endloop
  endfacet
  facet normal -1 0 0
    outer loop
      vertex 2 -252 0
      vertex 2 0.303352 190.122
      vertex 2 -122 95.9
    endloop
  endfacet
  facet normal -1 0 0
    outer loop
      vertex 2 -252 0
      vertex 2 -122 95.9
      vertex 2 -122 95.8996
    endloop
  endfacet
  facet normal 0 0.593641 -0.80473
    outer loop
      vertex 2 -252 0
      vertex 2 -122 95.8996
      vertex 3.9 -252 0
    endloop
  endfacet
  facet normal 0 0.593641 -0.80473
    outer loop
      vertex 3.9 -252 0
      vertex 2 -122 95.8996
      vertex 3.9 -122 95.8996
    endloop
  endfacet
  facet normal 1 0 0
    outer loop
      vertex 3.9 -252.404 4.54809
      vertex 3.9 -254.315 3.13845
      vertex 3.9 -252 0
    endloop
  endfacet
  facet normal 1 0 0
    outer loop
      vertex 3.9 -252 4
      vertex 3.9 -252.404 4.54809
      vertex 3.9 -252 0
    endloop
  endfacet
  facet normal 1 0 0
    outer loop
      vertex 3.9 2.21423 187.531
      vertex 3.9 -122 95.9
      vertex 3.9 -121.999 95.9
    endloop
  endfacet
  facet normal 1 0 0
    outer loop
      vertex 3.9 -122 95.8996
      vertex 3.9 -252 4
      vertex 3.9 -252 0
    endloop
  endfacet
  facet normal 1 0 0
    outer loop
      vertex 3.9 0.303352 190.122
      vertex 3.9 -122 95.9
      vertex 3.9 2.21423 187.531
    endloop
  endfacet
  facet normal 1 0 0
    outer loop
      vertex 3.9 -122 95.9
      vertex 3.9 -252 4
      vertex 3.9 -122 95.8996
    endloop
  endfacet
  facet normal 1 0 0
    outer loop
      vertex 3.9 0.303352 190.122
      vertex 3.9 -252 4
      vertex 3.9 -122 95.9
    endloop
  endfacet
  facet normal 1 0 0
    outer loop
      vertex 121.9 -122 95.9
      vertex 121.9 -122 92
      vertex 121.9 -120.1 92
    endloop
  endfacet
  facet normal 1 0 0
    outer loop
      vertex 121.9 -120.1 95.9
      vertex 121.9 -122 95.9
      vertex 121.9 -120.1 92
    endloop
  endfacet
  facet normal 0 0.593641 -0.80473
    outer loop
      vertex 2 -121.999 95.9
      vertex 2 2.21423 187.531
      vertex 3.9 -121.999 95.9
    endloop
  endfacet
  facet normal 0 0.593641 -0.80473
    outer loop
      vertex 3.9 -121.999 95.9
      vertex 2 2.21423 187.531
      vertex 3.9 2.21423 187.531
    endloop
  endfacet
  facet normal 0 0.593641 -0.80473
    outer loop
      vertex -4 -121.999 95.9
      vertex -4 2.21423 187.531
      vertex -2.1 -121.999 95.9
    endloop
  endfacet
  facet normal 0 0.593641 -0.80473
    outer loop
      vertex -2.1 -121.999 95.9
      vertex -4 2.21423 187.531
      vertex -2.1 2.21423 187.531
    endloop
  endfacet
  facet normal 0 0.593641 -0.80473
    outer loop
      vertex -118 -121.999 95.9
      vertex -118 2.21423 187.531
      vertex -116.1 -121.999 95.9
    endloop
  endfacet
  facet normal 0 0.593641 -0.80473
    outer loop
      vertex -116.1 -121.999 95.9
      vertex -118 2.21423 187.531
      vertex -116.1 2.21423 187.531
    endloop
  endfacet
  facet normal 0 -0.80473 -0.593641
    outer loop
      vertex -116.1 -254.315 3.13845
      vertex -118 -254.315 3.13845
      vertex -118 -252 0
    endloop
  endfacet
  facet normal 0 -0.80473 -0.593641
    outer loop
      vertex -116.1 -252 0
      vertex -116.1 -254.315 3.13845
      vertex -118 -252 0
    endloop
  endfacet
  facet normal 0 0.80473 0.593641
    outer loop
      vertex -118 0.303352 190.122
      vertex -116.1 0.303352 190.122
      vertex -118 2.21423 187.531
    endloop
  endfacet
  facet normal 0 0.80473 0.593641
    outer loop
      vertex -118 2.21423 187.531
      vertex -116.1 0.303352 190.122
      vertex -116.1 2.21423 187.531
    endloop
  endfacet
  facet normal 0 0.593641 -0.80473
    outer loop
      vertex -120 -252 4
      vertex -120 -2 188.422
      vertex -118 -252 4
    endloop
  endfacet
  facet normal 0 0.593641 -0.80473
    outer loop
      vertex -118 -252 4
      vertex -120 -2 188.422
      vertex -118.1 -2 188.422
    endloop
  endfacet
  facet normal 0 0.593641 -0.80473
    outer loop
      vertex -118 -252 4
      vertex -118.1 -2 188.422
      vertex -118.1 1.9 191.299
    endloop
  endfacet
  facet normal 0 0.593641 -0.80473
    outer loop
      vertex -118.1 1.9 191.299
      vertex -120 1.9 191.299
      vertex -120 2.29471 191.591
    endloop
  endfacet
  facet normal 0 0.593641 -0.80473
    outer loop
      vertex -118.1 1.9 191.299
      vertex -120 2.29471 191.591
      vertex 120 2.29471 191.591
    endloop
  endfacet
  facet normal 0 0.593641 -0.80473
    outer loop
      vertex 119.9 1.9 191.299
      vertex 120 2.29471 191.591
      vertex 120 1.9 191.299
    endloop
  endfacet
  facet normal 0 0.593641 -0.80473
    outer loop
      vertex 3.9 -252 4
      vertex 120 -2 188.422
      vertex 120 -252 4
    endloop
  endfacet
  facet normal 0 0.593641 -0.80473
    outer loop
      vertex 1.9 1.9 191.299
      vertex 120 2.29471 191.591
      vertex 3.9 0.303352 190.122
    endloop
  endfacet
  facet normal 0 0.593641 -0.80473
    outer loop
      vertex -2.1 0.303352 190.122
      vertex -2 -2 188.422
      vertex -2.1 -252 4
    endloop
  endfacet
  facet normal 0 0.593641 -0.80473
    outer loop
      vertex 1.9 1.9 191.299
      vertex 2 0.303352 190.122
      vertex 1.9 -2 188.422
    endloop
  endfacet
  facet normal 0 0.593641 -0.80473
    outer loop
      vertex 0 -2 188.422
      vertex -0.1 1.9 191.299
      vertex 0 1.9 191.299
    endloop
  endfacet
  facet normal 0 0.593641 -0.80473
    outer loop
      vertex -118.1 1.9 191.299
      vertex -2.1 0.303352 190.122
      vertex -4 0.303352 190.122
    endloop
  endfacet
  facet normal 0 0.593641 -0.80473
    outer loop
      vertex -2.1 0.303352 190.122
      vertex -118.1 1.9 191.299
      vertex -2 1.9 191.299
    endloop
  endfacet
  facet normal 0 0.593641 -0.80473
    outer loop
      vertex -118.1 1.9 191.299
      vertex -4 0.303352 190.122
      vertex -116.1 0.303352 190.122
    endloop
  endfacet
  facet normal 0 0.593641 -0.80473
    outer loop
      vertex -118.1 1.9 191.299
      vertex -116.1 0.303352 190.122
      vertex -118 0.303352 190.122
    endloop
  endfacet
  facet normal 0 0.593641 -0.80473
    outer loop
      vertex -118.1 1.9 191.299
      vertex -118 0.303352 190.122
      vertex -118 -252 4
    endloop
  endfacet
  facet normal 0 0.593641 -0.80473
    outer loop
      vertex -118.1 1.9 191.299
      vertex 120 2.29471 191.591
      vertex -2 1.9 191.299
    endloop
  endfacet
  facet normal 0 0.593641 -0.80473
    outer loop
      vertex -2 -2 188.422
      vertex -2.1 0.303352 190.122
      vertex -2 1.9 191.299
    endloop
  endfacet
  facet normal 0 0.593641 -0.80473
    outer loop
      vertex -4 -252 4
      vertex -116.1 -252 4
      vertex -4 0.303352 190.122
    endloop
  endfacet
  facet normal 0 0.593641 -0.80473
    outer loop
      vertex -2 1.9 191.299
      vertex 120 2.29471 191.591
      vertex -0.1 1.9 191.299
    endloop
  endfacet
  facet normal 0 0.593641 -0.80473
    outer loop
      vertex 0 -2 188.422
      vertex -0.1 -2 188.422
      vertex -0.1 1.9 191.299
    endloop
  endfacet
  facet normal 0 0.593641 -0.80473
    outer loop
      vertex -0.1 1.9 191.299
      vertex 120 2.29471 191.591
      vertex 0 1.9 191.299
    endloop
  endfacet
  facet normal 0 0.593641 -0.80473
    outer loop
      vertex 1.9 1.9 191.299
      vertex 3.9 0.303352 190.122
      vertex 2 0.303352 190.122
    endloop
  endfacet
  facet normal 0 0.593641 -0.80473
    outer loop
      vertex 0 1.9 191.299
      vertex 120 2.29471 191.591
      vertex 1.9 1.9 191.299
    endloop
  endfacet
  facet normal 0 0.593641 -0.80473
    outer loop
      vertex 118 -2 188.422
      vertex 3.9 0.303352 190.122
      vertex 118 1.9 191.299
    endloop
  endfacet
  facet normal 0 0.593641 -0.80473
    outer loop
      vertex 3.9 0.303352 190.122
      vertex 120 2.29471 191.591
      vertex 118 1.9 191.299
    endloop
  endfacet
  facet normal 0 0.593641 -0.80473
    outer loop
      vertex 2 -252 4
      vertex 1.9 -2 188.422
      vertex 2 0.303352 190.122
    endloop
  endfacet
  facet normal 0 0.593641 -0.80473
    outer loop
      vertex 119.9 -2 188.422
      vertex 120 1.9 191.299
      vertex 120 -2 188.422
    endloop
  endfacet
  facet normal 0 0.593641 -0.80473
    outer loop
      vertex -116.1 0.303352 190.122
      vertex -4 0.303352 190.122
      vertex -116.1 -252 4
    endloop
  endfacet
  facet normal 0 0.593641 -0.80473
    outer loop
      vertex 2 -252 4
      vertex -2.1 -252 4
      vertex 1.9 -2 188.422
    endloop
  endfacet
  facet normal 0 0.593641 -0.80473
    outer loop
      vertex 118 1.9 191.299
      vertex 120 2.29471 191.591
      vertex 119.9 1.9 191.299
    endloop
  endfacet
  facet normal 0 0.593641 -0.80473
    outer loop
      vertex 119.9 1.9 191.299
      vertex 120 1.9 191.299
      vertex 119.9 -2 188.422
    endloop
  endfacet
  facet normal 0 0.593641 -0.80473
    outer loop
      vertex 119.9 -2 188.422
      vertex 120 -2 188.422
      vertex 3.9 -252 4
    endloop
  endfacet
  facet normal 0 0.593641 -0.80473
    outer loop
      vertex 118 -2 188.422
      vertex 119.9 -2 188.422
      vertex 3.9 -252 4
    endloop
  endfacet
  facet normal 0 0.593641 -0.80473
    outer loop
      vertex 3.9 0.303352 190.122
      vertex 118 -2 188.422
      vertex 3.9 -252 4
    endloop
  endfacet
  facet normal 0 0.593641 -0.80473
    outer loop
      vertex -2 -2 188.422
      vertex -0.1 -2 188.422
      vertex -2.1 -252 4
    endloop
  endfacet
  facet normal 0 0.593641 -0.80473
    outer loop
      vertex -0.1 -2 188.422
      vertex 0 -2 188.422
      vertex -2.1 -252 4
    endloop
  endfacet
  facet normal 0 0.593641 -0.80473
    outer loop
      vertex 0 -2 188.422
      vertex 1.9 -2 188.422
      vertex -2.1 -252 4
    endloop
  endfacet
  facet normal 0 -0.80473 -0.593641
    outer loop
      vertex -118 -252.404 4.54809
      vertex -120 -252.594 4.80473
      vertex -120 -252 4
    endloop
  endfacet
  facet normal 0 -0.80473 -0.593641
    outer loop
      vertex 120 -252.594 4.80473
      vertex -120 -252.594 4.80473
      vertex -118 -252.404 4.54809
    endloop
  endfacet
  facet normal 0 -0.80473 -0.593641
    outer loop
      vertex -2.1 -252.404 4.54809
      vertex -2.1 -252 4
      vertex 2 -252.404 4.54809
    endloop
  endfacet
  facet normal 0 -0.80473 -0.593641
    outer loop
      vertex 120 -252.594 4.80473
      vertex -118 -252.404 4.54809
      vertex -116.1 -252.404 4.54809
    endloop
  endfacet
  facet normal 0 -0.80473 -0.593641
    outer loop
      vertex 120 -252.594 4.80473
      vertex -116.1 -252.404 4.54809
      vertex -4 -252.404 4.54809
    endloop
  endfacet
  facet normal 0 -0.80473 -0.593641
    outer loop
      vertex 3.9 -252.404 4.54809
      vertex 3.9 -252 4
      vertex 120 -252.594 4.80473
    endloop
  endfacet
  facet normal 0 -0.80473 -0.593641
    outer loop
      vertex 120 -252.594 4.80473
      vertex -4 -252.404 4.54809
      vertex -2.1 -252.404 4.54809
    endloop
  endfacet
  facet normal 0 -0.80473 -0.593641
    outer loop
      vertex 120 -252.594 4.80473
      vertex -2.1 -252.404 4.54809
      vertex 2 -252.404 4.54809
    endloop
  endfacet
  facet normal 0 -0.80473 -0.593641
    outer loop
      vertex -116.1 -252.404 4.54809
      vertex -116.1 -252 4
      vertex -4 -252.404 4.54809
    endloop
  endfacet
  facet normal 0 -0.80473 -0.593641
    outer loop
      vertex 120 -252.594 4.80473
      vertex 2 -252.404 4.54809
      vertex 3.9 -252.404 4.54809
    endloop
  endfacet
  facet normal 0 -0.80473 -0.593641
    outer loop
      vertex 120 -252 4
      vertex 120 -252.594 4.80473
      vertex 3.9 -252 4
    endloop
  endfacet
  facet normal 0 -0.80473 -0.593641
    outer loop
      vertex 2 -252 4
      vertex 2 -252.404 4.54809
      vertex -2.1 -252 4
    endloop
  endfacet
  facet normal 0 -0.80473 -0.593641
    outer loop
      vertex -4 -252 4
      vertex -4 -252.404 4.54809
      vertex -116.1 -252 4
    endloop
  endfacet
  facet normal 0 -0.80473 -0.593641
    outer loop
      vertex -118 -252 4
      vertex -118 -252.404 4.54809
      vertex -120 -252 4
    endloop
  endfacet
  facet normal 0 -0.593641 0.80473
    outer loop
      vertex -118 -252.404 4.54809
      vertex -118 -254.315 3.13845
      vertex -116.1 -254.315 3.13845
    endloop
  endfacet
  facet normal 0 -0.593641 0.80473
    outer loop
      vertex -116.1 -252.404 4.54809
      vertex -118 -252.404 4.54809
      vertex -116.1 -254.315 3.13845
    endloop
  endfacet
  facet normal 0 -0.80473 -0.593641
    outer loop
      vertex -2.1 -254.315 3.13845
      vertex -4 -254.315 3.13845
      vertex -4 -252 0
    endloop
  endfacet
  facet normal 0 -0.80473 -0.593641
    outer loop
      vertex -2.1 -252 0
      vertex -2.1 -254.315 3.13845
      vertex -4 -252 0
    endloop
  endfacet
  facet normal 0 0.80473 0.593641
    outer loop
      vertex -4 0.303352 190.122
      vertex -2.1 0.303352 190.122
      vertex -4 2.21423 187.531
    endloop
  endfacet
  facet normal 0 0.80473 0.593641
    outer loop
      vertex -4 2.21423 187.531
      vertex -2.1 0.303352 190.122
      vertex -2.1 2.21423 187.531
    endloop
  endfacet
  facet normal 0 -0.593641 0.80473
    outer loop
      vertex -4 -252.404 4.54809
      vertex -4 -254.315 3.13845
      vertex -2.1 -254.315 3.13845
    endloop
  endfacet
  facet normal 0 -0.593641 0.80473
    outer loop
      vertex -2.1 -252.404 4.54809
      vertex -4 -252.404 4.54809
      vertex -2.1 -254.315 3.13845
    endloop
  endfacet
  facet normal 0 -0.80473 -0.593641
    outer loop
      vertex 3.9 -254.315 3.13845
      vertex 2 -254.315 3.13845
      vertex 2 -252 0
    endloop
  endfacet
  facet normal 0 -0.80473 -0.593641
    outer loop
      vertex 3.9 -252 0
      vertex 3.9 -254.315 3.13845
      vertex 2 -252 0
    endloop
  endfacet
  facet normal 0 0.80473 0.593641
    outer loop
      vertex 2 0.303352 190.122
      vertex 3.9 0.303352 190.122
      vertex 2 2.21423 187.531
    endloop
  endfacet
  facet normal 0 0.80473 0.593641
    outer loop
      vertex 2 2.21423 187.531
      vertex 3.9 0.303352 190.122
      vertex 3.9 2.21423 187.531
    endloop
  endfacet
  facet normal 0 -0.593641 0.80473
    outer loop
      vertex 2 -252.404 4.54809
      vertex 2 -254.315 3.13845
      vertex 3.9 -254.315 3.13845
    endloop
  endfacet
  facet normal 0 -0.593641 0.80473
    outer loop
      vertex 3.9 -252.404 4.54809
      vertex 2 -252.404 4.54809
      vertex 3.9 -254.315 3.13845
    endloop
  endfacet
  facet normal 1 0 0
    outer loop
      vertex 120 -252 4
      vertex 120 -2 188.422
      vertex 120 -2 189.665
    endloop
  endfacet
  facet normal 1 0 0
    outer loop
      vertex 120 -252.594 4.80473
      vertex 120 -252 4
      vertex 120 -2 189.665
    endloop
  endfacet
  facet normal 0 -1 0
    outer loop
      vertex 120 -2 188.422
      vertex 120 -2 0
      vertex 121.9 -2 0
    endloop
  endfacet
  facet normal 0 -1 0
    outer loop
      vertex 120 -2 189.665
      vertex 120 -2 188.422
      vertex 121.9 -2 191.9
    endloop
  endfacet
  facet normal 0 -1 0
    outer loop
      vertex 121.9 -2 191.9
      vertex 120 -2 188.422
      vertex 121.9 -2 0
    endloop
  endfacet
  facet normal 0 -1 0
    outer loop
      vertex 120 -2 191.9
      vertex 120 -2 189.665
      vertex 121.9 -2 191.9
    endloop
  endfacet
  facet normal -1 0 0
    outer loop
      vertex 120 -2 0
      vertex 120 -2 188.422
      vertex 120 1.9 0
    endloop
  endfacet
  facet normal -1 0 0
    outer loop
      vertex 120 1.9 0
      vertex 120 -2 188.422
      vertex 120 1.9 191.299
    endloop
  endfacet
  facet normal 0 1 0
    outer loop
      vertex 120 1.9 0
      vertex 120 1.9 191.299
      vertex 121.9 1.9 0
    endloop
  endfacet
  facet normal 0 1 0
    outer loop
      vertex 121.9 1.9 0
      vertex 120 1.9 191.299
      vertex 120 1.9 191.9
    endloop
  endfacet
  facet normal 0 1 0
    outer loop
      vertex 121.9 1.9 0
      vertex 120 1.9 191.9
      vertex 121.9 1.9 191.9
    endloop
  endfacet
  facet normal 1 0 0
    outer loop
      vertex 120 1.9 191.9
      vertex 120 1.9 191.299
      vertex 120 2.29471 191.591
    endloop
  endfacet
  facet normal 1 0 0
    outer loop
      vertex 120 1.70107 192.395
      vertex 120 1.9 191.9
      vertex 120 2.29471 191.591
    endloop
  endfacet
  facet normal 1 0 0
    outer loop
      vertex 120 1.02972 191.9
      vertex 120 1.9 191.9
      vertex 120 1.70107 192.395
    endloop
  endfacet
  facet normal 0 0.80473 0.593641
    outer loop
      vertex -120 1.70107 192.395
      vertex 120 1.70107 192.395
      vertex -120 2.29471 191.591
    endloop
  endfacet
  facet normal 0 0.80473 0.593641
    outer loop
      vertex -120 2.29471 191.591
      vertex 120 1.70107 192.395
      vertex 120 2.29471 191.591
    endloop
  endfacet
  facet normal -1 0 0
    outer loop
      vertex -120 -252.594 4.80473
      vertex -120 -2 189.665
      vertex -120 -252 4
    endloop
  endfacet
  facet normal -1 0 0
    outer loop
      vertex -120 1.02972 191.9
      vertex -120 -2 189.665
      vertex -120 -2 191.9
    endloop
  endfacet
  facet normal -1 0 0
    outer loop
      vertex -120 -252 4
      vertex -120 -2 189.665
      vertex -120 1.02972 191.9
    endloop
  endfacet
  facet normal -1 0 0
    outer loop
      vertex -120 -252 4
      vertex -120 1.02972 191.9
      vertex -120 1.70107 192.395
    endloop
  endfacet
  facet normal -1 0 0
    outer loop
      vertex -120 1.9 191.299
      vertex -120 1.70107 192.395
      vertex -120 2.29471 191.591
    endloop
  endfacet
  facet normal -1 0 0
    outer loop
      vertex -120 -252 4
      vertex -120 1.70107 192.395
      vertex -120 -2 188.422
    endloop
  endfacet
  facet normal -1 0 0
    outer loop
      vertex -120 1.9 191.299
      vertex -120 1.9 0
      vertex -120 -2 188.422
    endloop
  endfacet
  facet normal -1 0 0
    outer loop
      vertex -120 1.9 191.299
      vertex -120 -2 188.422
      vertex -120 1.70107 192.395
    endloop
  endfacet
  facet normal -1 0 0
    outer loop
      vertex -120 -2 188.422
      vertex -120 1.9 0
      vertex -120 -2 0
    endloop
  endfacet
  facet normal 0 1 0
    outer loop
      vertex -120 1.9 0
      vertex -120 1.9 191.299
      vertex -118.1 1.9 0
    endloop
  endfacet
  facet normal 0 1 0
    outer loop
      vertex -118.1 1.9 0
      vertex -120 1.9 191.299
      vertex -118.1 1.9 191.299
    endloop
  endfacet
  facet normal 1 0 0
    outer loop
      vertex -118.1 -2 188.422
      vertex -118.1 -2 0
      vertex -118.1 1.9 0
    endloop
  endfacet
  facet normal 1 0 0
    outer loop
      vertex -118.1 1.9 191.299
      vertex -118.1 -2 188.422
      vertex -118.1 1.9 0
    endloop
  endfacet
  facet normal 0 -1 0
    outer loop
      vertex -120 -2 188.422
      vertex -120 -2 0
      vertex -118.1 -2 0
    endloop
  endfacet
  facet normal 0 -1 0
    outer loop
      vertex -118.1 -2 188.422
      vertex -120 -2 188.422
      vertex -118.1 -2 0
    endloop
  endfacet
  facet normal -1 0 0
    outer loop
      vertex -2 -2 0
      vertex -2 -2 188.422
      vertex -2 1.9 0
    endloop
  endfacet
  facet normal -1 0 0
    outer loop
      vertex -2 1.9 0
      vertex -2 -2 188.422
      vertex -2 1.9 191.299
    endloop
  endfacet
  facet normal 0 1 0
    outer loop
      vertex -2 1.9 0
      vertex -2 1.9 191.299
      vertex -0.1 1.9 0
    endloop
  endfacet
  facet normal 0 1 0
    outer loop
      vertex -0.1 1.9 0
      vertex -2 1.9 191.299
      vertex -0.1 1.9 191.299
    endloop
  endfacet
  facet normal 1 0 0
    outer loop
      vertex -0.1 -2 188.422
      vertex -0.1 -2 0
      vertex -0.1 1.9 0
    endloop
  endfacet
  facet normal 1 0 0
    outer loop
      vertex -0.1 1.9 191.299
      vertex -0.1 -2 188.422
      vertex -0.1 1.9 0
    endloop
  endfacet
  facet normal 0 -1 0
    outer loop
      vertex -2 -2 188.422
      vertex -2 -2 0
      vertex -0.1 -2 0
    endloop
  endfacet
  facet normal 0 -1 0
    outer loop
      vertex -0.1 -2 188.422
      vertex -2 -2 188.422
      vertex -0.1 -2 0
    endloop
  endfacet
  facet normal -1 0 0
    outer loop
      vertex 0 -2 0
      vertex 0 -2 188.422
      vertex 0 1.9 0
    endloop
  endfacet
  facet normal -1 0 0
    outer loop
      vertex 0 1.9 0
      vertex 0 -2 188.422
      vertex 0 1.9 191.299
    endloop
  endfacet
  facet normal 0 1 0
    outer loop
      vertex 0 1.9 0
      vertex 0 1.9 191.299
      vertex 1.9 1.9 0
    endloop
  endfacet
  facet normal 0 1 0
    outer loop
      vertex 1.9 1.9 0
      vertex 0 1.9 191.299
      vertex 1.9 1.9 191.299
    endloop
  endfacet
  facet normal 1 0 0
    outer loop
      vertex 1.9 -2 188.422
      vertex 1.9 -2 0
      vertex 1.9 1.9 0
    endloop
  endfacet
  facet normal 1 0 0
    outer loop
      vertex 1.9 1.9 191.299
      vertex 1.9 -2 188.422
      vertex 1.9 1.9 0
    endloop
  endfacet
  facet normal 0 -1 0
    outer loop
      vertex 0 -2 188.422
      vertex 0 -2 0
      vertex 1.9 -2 0
    endloop
  endfacet
  facet normal 0 -1 0
    outer loop
      vertex 1.9 -2 188.422
      vertex 0 -2 188.422
      vertex 1.9 -2 0
    endloop
  endfacet
  facet normal -1 0 0
    outer loop
      vertex 118 -2 0
      vertex 118 -2 188.422
      vertex 118 1.9 0
    endloop
  endfacet
  facet normal -1 0 0
    outer loop
      vertex 118 1.9 0
      vertex 118 -2 188.422
      vertex 118 1.9 191.299
    endloop
  endfacet
  facet normal 0 1 0
    outer loop
      vertex 118 1.9 0
      vertex 118 1.9 191.299
      vertex 119.9 1.9 0
    endloop
  endfacet
  facet normal 0 1 0
    outer loop
      vertex 119.9 1.9 0
      vertex 118 1.9 191.299
      vertex 119.9 1.9 191.299
    endloop
  endfacet
  facet normal 1 0 0
    outer loop
      vertex 119.9 -2 188.422
      vertex 119.9 -2 0
      vertex 119.9 1.9 0
    endloop
  endfacet
  facet normal 1 0 0
    outer loop
      vertex 119.9 1.9 191.299
      vertex 119.9 -2 188.422
      vertex 119.9 1.9 0
    endloop
  endfacet
  facet normal 0 -1 0
    outer loop
      vertex 118 -2 188.422
      vertex 118 -2 0
      vertex 119.9 -2 0
    endloop
  endfacet
  facet normal 0 -1 0
    outer loop
      vertex 119.9 -2 188.422
      vertex 118 -2 188.422
      vertex 119.9 -2 0
    endloop
  endfacet
  facet normal 0 -0.593641 0.80473
    outer loop
      vertex -120 -2 189.665
      vertex -120 -252.594 4.80473
      vertex 120 -252.594 4.80473
    endloop
  endfacet
  facet normal 0 -0.593641 0.80473
    outer loop
      vertex -118.1 -2 189.665
      vertex -120 -2 189.665
      vertex 120 -252.594 4.80473
    endloop
  endfacet
  facet normal 0 -0.593641 0.80473
    outer loop
      vertex 120 -2 189.665
      vertex 119.9 -2 189.665
      vertex 120 -252.594 4.80473
    endloop
  endfacet
  facet normal 0 -0.593641 0.80473
    outer loop
      vertex -120 1.70107 192.395
      vertex -120 1.02972 191.9
      vertex 120 1.70107 192.395
    endloop
  endfacet
  facet normal 0 -0.593641 0.80473
    outer loop
      vertex -120 1.02972 191.9
      vertex -118.1 1.02972 191.9
      vertex 120 1.70107 192.395
    endloop
  endfacet
  facet normal 0 -0.593641 0.80473
    outer loop
      vertex -2 -2 189.665
      vertex -118.1 -2 189.665
      vertex 120 -252.594 4.80473
    endloop
  endfacet
  facet normal 0 -0.593641 0.80473
    outer loop
      vertex 118 -2 189.665
      vertex 118 1.02972 191.9
      vertex 1.9 -2 189.665
    endloop
  endfacet
  facet normal 0 -0.593641 0.80473
    outer loop
      vertex -0.1 -2 189.665
      vertex -2 -2 189.665
      vertex 120 -252.594 4.80473
    endloop
  endfacet
  facet normal 0 -0.593641 0.80473
    outer loop
      vertex -118.1 1.02972 191.9
      vertex -2 1.02972 191.9
      vertex 120 1.70107 192.395
    endloop
  endfacet
  facet normal 0 -0.593641 0.80473
    outer loop
      vertex -2 1.02972 191.9
      vertex -0.1 1.02972 191.9
      vertex 120 1.70107 192.395
    endloop
  endfacet
  facet normal 0 -0.593641 0.80473
    outer loop
      vertex 0 -2 189.665
      vertex -0.1 -2 189.665
      vertex 120 -252.594 4.80473
    endloop
  endfacet
  facet normal 0 -0.593641 0.80473
    outer loop
      vertex 1.9 -2 189.665
      vertex 0 -2 189.665
      vertex 120 -252.594 4.80473
    endloop
  endfacet
  facet normal 0 -0.593641 0.80473
    outer loop
      vertex -0.1 1.02972 191.9
      vertex 0 1.02972 191.9
      vertex 120 1.70107 192.395
    endloop
  endfacet
  facet normal 0 -0.593641 0.80473
    outer loop
      vertex -2 -2 189.665
      vertex -2 1.02972 191.9
      vertex -118.1 -2 189.665
    endloop
  endfacet
  facet normal 0 -0.593641 0.80473
    outer loop
      vertex 0 1.02972 191.9
      vertex 1.9 1.02972 191.9
      vertex 120 1.70107 192.395
    endloop
  endfacet
  facet normal 0 -0.593641 0.80473
    outer loop
      vertex 118 -2 189.665
      vertex 1.9 -2 189.665
      vertex 120 -252.594 4.80473
    endloop
  endfacet
  facet normal 0 -0.593641 0.80473
    outer loop
      vertex 119.9 -2 189.665
      vertex 118 -2 189.665
      vertex 120 -252.594 4.80473
    endloop
  endfacet
  facet normal 0 -0.593641 0.80473
    outer loop
      vertex 0 -2 189.665
      vertex 0 1.02972 191.9
      vertex -0.1 -2 189.665
    endloop
  endfacet
  facet normal 0 -0.593641 0.80473
    outer loop
      vertex 120 1.70107 192.395
      vertex 119.9 1.02972 191.9
      vertex 120 1.02972 191.9
    endloop
  endfacet
  facet normal 0 -0.593641 0.80473
    outer loop
      vertex 120 1.70107 192.395
      vertex 118 1.02972 191.9
      vertex 119.9 1.02972 191.9
    endloop
  endfacet
  facet normal 0 -0.593641 0.80473
    outer loop
      vertex 120 1.02972 191.9
      vertex 119.9 -2 189.665
      vertex 120 -2 189.665
    endloop
  endfacet
  facet normal 0 -0.593641 0.80473
    outer loop
      vertex 1.9 1.02972 191.9
      vertex 118 1.02972 191.9
      vertex 120 1.70107 192.395
    endloop
  endfacet
  facet normal 0 -0.593641 0.80473
    outer loop
      vertex -0.1 1.02972 191.9
      vertex -0.1 -2 189.665
      vertex 0 1.02972 191.9
    endloop
  endfacet
  facet normal 0 -0.593641 0.80473
    outer loop
      vertex 119.9 1.02972 191.9
      vertex 119.9 -2 189.665
      vertex 120 1.02972 191.9
    endloop
  endfacet
  facet normal 0 -0.593641 0.80473
    outer loop
      vertex 1.9 1.02972 191.9
      vertex 1.9 -2 189.665
      vertex 118 1.02972 191.9
    endloop
  endfacet
  facet normal 0 -0.593641 0.80473
    outer loop
      vertex -118.1 1.02972 191.9
      vertex -118.1 -2 189.665
      vertex -2 1.02972 191.9
    endloop
  endfacet
  facet normal -1 0 0
    outer loop
      vertex 120 1.02972 191.9
      vertex 120 -2 189.665
      vertex 120 -2 191.9
    endloop
  endfacet
  facet normal 0 0 1
    outer loop
      vertex 120 1.02972 191.9
      vertex 120 -2 191.9
      vertex 121.9 -2 191.9
    endloop
  endfacet
  facet normal 0 0 1
    outer loop
      vertex 120 1.9 191.9
      vertex 120 1.02972 191.9
      vertex 121.9 1.9 191.9
    endloop
  endfacet
  facet normal 0 0 1
    outer loop
      vertex 121.9 1.9 191.9
      vertex 120 1.02972 191.9
      vertex 121.9 -2 191.9
    endloop
  endfacet
  facet normal 1 0 0
    outer loop
      vertex 121.9 -2 191.9
      vertex 121.9 -2 0
      vertex 121.9 1.9 0
    endloop
  endfacet
  facet normal 1 0 0
    outer loop
      vertex 121.9 1.9 191.9
      vertex 121.9 -2 191.9
      vertex 121.9 1.9 0
    endloop
  endfacet
  facet normal 0 0 -1
    outer loop
      vertex 120 -2 0
      vertex 120 1.9 0
      vertex 121.9 -2 0
    endloop
  endfacet
  facet normal 0 0 -1
    outer loop
      vertex 121.9 -2 0
      vertex 120 1.9 0
      vertex 121.9 1.9 0
    endloop
  endfacet
  facet normal 0 0 -1
    outer loop
      vertex -120 -2 0
      vertex -120 1.9 0
      vertex -118.1 -2 0
    endloop
  endfacet
  facet normal 0 0 -1
    outer loop
      vertex -118.1 -2 0
      vertex -120 1.9 0
      vertex -118.1 1.9 0
    endloop
  endfacet
  facet normal 0 0 1
    outer loop
      vertex -120 1.02972 191.9
      vertex -120 -2 191.9
      vertex -118.1 -2 191.9
    endloop
  endfacet
  facet normal 0 0 1
    outer loop
      vertex -118.1 1.02972 191.9
      vertex -120 1.02972 191.9
      vertex -118.1 -2 191.9
    endloop
  endfacet
  facet normal 0 -1 0
    outer loop
      vertex -120 -2 191.9
      vertex -120 -2 189.665
      vertex -118.1 -2 189.665
    endloop
  endfacet
  facet normal 0 -1 0
    outer loop
      vertex -118.1 -2 191.9
      vertex -120 -2 191.9
      vertex -118.1 -2 189.665
    endloop
  endfacet
  facet normal 0 0 -1
    outer loop
      vertex -2 -2 0
      vertex -2 1.9 0
      vertex -0.1 -2 0
    endloop
  endfacet
  facet normal 0 0 -1
    outer loop
      vertex -0.1 -2 0
      vertex -2 1.9 0
      vertex -0.1 1.9 0
    endloop
  endfacet
  facet normal 0 0 -1
    outer loop
      vertex 0 -2 0
      vertex 0 1.9 0
      vertex 1.9 -2 0
    endloop
  endfacet
  facet normal 0 0 -1
    outer loop
      vertex 1.9 -2 0
      vertex 0 1.9 0
      vertex 1.9 1.9 0
    endloop
  endfacet
  facet normal 0 0 -1
    outer loop
      vertex 118 -2 0
      vertex 118 1.9 0
      vertex 119.9 -2 0
    endloop
  endfacet
  facet normal 0 0 -1
    outer loop
      vertex 119.9 -2 0
      vertex 118 1.9 0
      vertex 119.9 1.9 0
    endloop
  endfacet
  facet normal 1 0 0
    outer loop
      vertex -118.1 -2 191.9
      vertex -118.1 -2 189.665
      vertex -118.1 1.02972 191.9
    endloop
  endfacet
  facet normal -1 0 0
    outer loop
      vertex -2 1.02972 191.9
      vertex -2 -2 189.665
      vertex -2 -2 191.9
    endloop
  endfacet
  facet normal 0 -1 0
    outer loop
      vertex -2 -2 191.9
      vertex -2 -2 189.665
      vertex -0.1 -2 189.665
    endloop
  endfacet
  facet normal 0 -1 0
    outer loop
      vertex -0.1 -2 191.9
      vertex -2 -2 191.9
      vertex -0.1 -2 189.665
    endloop
  endfacet
  facet normal 1 0 0
    outer loop
      vertex -0.1 -2 191.9
      vertex -0.1 -2 189.665
      vertex -0.1 1.02972 191.9
    endloop
  endfacet
  facet normal 0 0 1
    outer loop
      vertex -2 1.02972 191.9
      vertex -2 -2 191.9
      vertex -0.1 -2 191.9
    endloop
  endfacet
  facet normal 0 0 1
    outer loop
      vertex -0.1 1.02972 191.9
      vertex -2 1.02972 191.9
      vertex -0.1 -2 191.9
    endloop
  endfacet
  facet normal -1 0 0
    outer loop
      vertex 0 1.02972 191.9
      vertex 0 -2 189.665
      vertex 0 -2 191.9
    endloop
  endfacet
  facet normal 0 -1 0
    outer loop
      vertex 0 -2 191.9
      vertex 0 -2 189.665
      vertex 1.9 -2 189.665
    endloop
  endfacet
  facet normal 0 -1 0
    outer loop
      vertex 1.9 -2 191.9
      vertex 0 -2 191.9
      vertex 1.9 -2 189.665
    endloop
  endfacet
  facet normal 1 0 0
    outer loop
      vertex 1.9 -2 191.9
      vertex 1.9 -2 189.665
      vertex 1.9 1.02972 191.9
    endloop
  endfacet
  facet normal 0 0 1
    outer loop
      vertex 0 1.02972 191.9
      vertex 0 -2 191.9
      vertex 1.9 -2 191.9
    endloop
  endfacet
  facet normal 0 0 1
    outer loop
      vertex 1.9 1.02972 191.9
      vertex 0 1.02972 191.9
      vertex 1.9 -2 191.9
    endloop
  endfacet
  facet normal -1 0 0
    outer loop
      vertex 118 1.02972 191.9
      vertex 118 -2 189.665
      vertex 118 -2 191.9
    endloop
  endfacet
  facet normal 0 -1 0
    outer loop
      vertex 118 -2 191.9
      vertex 118 -2 189.665
      vertex 119.9 -2 189.665
    endloop
  endfacet
  facet normal 0 -1 0
    outer loop
      vertex 119.9 -2 191.9
      vertex 118 -2 191.9
      vertex 119.9 -2 189.665
    endloop
  endfacet
  facet normal 1 0 0
    outer loop
      vertex 119.9 -2 191.9
      vertex 119.9 -2 189.665
      vertex 119.9 1.02972 191.9
    endloop
  endfacet
  facet normal 0 0 1
    outer loop
      vertex 118 1.02972 191.9
      vertex 118 -2 191.9
      vertex 119.9 -2 191.9
    endloop
  endfacet
  facet normal 0 0 1
    outer loop
      vertex 119.9 1.02972 191.9
      vertex 118 1.02972 191.9
      vertex 119.9 -2 191.9
    endloop
  endfacet
  facet normal -1 0 0
    outer loop
      vertex -122 -2 0
      vertex -122 -2 191.9
      vertex -122 1.9 0
    endloop
  endfacet
  facet normal -1 0 0
    outer loop
      vertex -122 1.9 0
      vertex -122 -2 191.9
      vertex -122 1.9 191.9
    endloop
  endfacet
  facet normal 0 -1 0
    outer loop
      vertex -122 -2 191.9
      vertex -122 -2 0
      vertex -120.1 -2 0
    endloop
  endfacet
  facet normal 0 -1 0
    outer loop
      vertex -120.1 -2 191.9
      vertex -122 -2 191.9
      vertex -120.1 -2 0
    endloop
  endfacet
  facet normal 0 0 -1
    outer loop
      vertex -122 -2 0
      vertex -122 1.9 0
      vertex -120.1 -2 0
    endloop
  endfacet
  facet normal 0 0 -1
    outer loop
      vertex -120.1 -2 0
      vertex -122 1.9 0
      vertex -120.1 1.9 0
    endloop
  endfacet
  facet normal 0 1 0
    outer loop
      vertex -122 1.9 0
      vertex -122 1.9 191.9
      vertex -120.1 1.9 0
    endloop
  endfacet
  facet normal 0 1 0
    outer loop
      vertex -120.1 1.9 0
      vertex -122 1.9 191.9
      vertex -120.1 1.9 191.9
    endloop
  endfacet
  facet normal 0 0 1
    outer loop
      vertex -122 1.9 191.9
      vertex -122 -2 191.9
      vertex -120.1 -2 191.9
    endloop
  endfacet
  facet normal 0 0 1
    outer loop
      vertex -120.1 1.9 191.9
      vertex -122 1.9 191.9
      vertex -120.1 -2 191.9
    endloop
  endfacet
  facet normal 1 0 0
    outer loop
      vertex -120.1 -2 191.9
      vertex -120.1 -2 0
      vertex -120.1 1.9 0
    endloop
  endfacet
  facet normal 1 0 0
    outer loop
      vertex -120.1 1.9 191.9
      vertex -120.1 -2 191.9
      vertex -120.1 1.9 0
    endloop
  endfacet
  facet normal -1 0 0
    outer loop
      vertex -118 123.139 83.1183
      vertex -118 -121 0
      vertex -118 121.882 86.8102
    endloop
  endfacet
  facet normal -1 0 0
    outer loop
      vertex -118 121.882 86.8102
      vertex -118 -121 0
      vertex -118 -122.257 3.6919
    endloop
  endfacet
  facet normal 0 -0.322289 0.946641
    outer loop
      vertex -116.1 -122.257 3.6919
      vertex -116.1 121.882 86.8102
      vertex -118 121.882 86.8102
    endloop
  endfacet
  facet normal 0 -0.322289 0.946641
    outer loop
      vertex -118 -122.257 3.6919
      vertex -116.1 -122.257 3.6919
      vertex -118 121.882 86.8102
    endloop
  endfacet
  facet normal 0 -0.946641 -0.322289
    outer loop
      vertex -118 -121 0
      vertex -116.1 -121 0
      vertex -116.1 -122.257 3.6919
    endloop
  endfacet
  facet normal 0 -0.946641 -0.322289
    outer loop
      vertex -118 -122.257 3.6919
      vertex -118 -121 0
      vertex -116.1 -122.257 3.6919
    endloop
  endfacet
  facet normal 0 0.946641 0.322289
    outer loop
      vertex -116.1 123.139 83.1183
      vertex -118 123.139 83.1183
      vertex -116.1 121.882 86.8102
    endloop
  endfacet
  facet normal 0 0.946641 0.322289
    outer loop
      vertex -116.1 121.882 86.8102
      vertex -118 123.139 83.1183
      vertex -118 121.882 86.8102
    endloop
  endfacet
  facet normal 0 0.322289 -0.946641
    outer loop
      vertex -116.1 123.139 83.1183
      vertex -116.1 -121 0
      vertex -118 123.139 83.1183
    endloop
  endfacet
  facet normal 0 0.322289 -0.946641
    outer loop
      vertex -118 123.139 83.1183
      vertex -116.1 -121 0
      vertex -118 -121 0
    endloop
  endfacet
  facet normal 1 0 0
    outer loop
      vertex -116.1 -121 0
      vertex -116.1 123.139 83.1183
      vertex -116.1 121.882 86.8102
    endloop
  endfacet
  facet normal 1 0 0
    outer loop
      vertex -116.1 -122.257 3.6919
      vertex -116.1 -121 0
      vertex -116.1 121.882 86.8102
    endloop
  endfacet
  facet normal -1 0 0
    outer loop
      vertex -124 126 3
      vertex -124 124.743 -0.691901
      vertex -124 -118.139 86.1183
    endloop
  endfacet
  facet normal -1 0 0
    outer loop
      vertex -124 -118.139 86.1183
      vertex -124 124.743 -0.691901
      vertex -124 -119.396 82.4264
    endloop
  endfacet
  facet normal 0 -0.946641 0.322289
    outer loop
      vertex -122.1 -119.396 82.4264
      vertex -122.1 -118.139 86.1183
      vertex -124 -118.139 86.1183
    endloop
  endfacet
  facet normal 0 -0.946641 0.322289
    outer loop
      vertex -124 -119.396 82.4264
      vertex -122.1 -119.396 82.4264
      vertex -124 -118.139 86.1183
    endloop
  endfacet
  facet normal 0 -0.322289 -0.946641
    outer loop
      vertex -122.1 124.743 -0.691901
      vertex -122.1 -119.396 82.4264
      vertex -124 124.743 -0.691901
    endloop
  endfacet
  facet normal 0 -0.322289 -0.946641
    outer loop
      vertex -124 124.743 -0.691901
      vertex -122.1 -119.396 82.4264
      vertex -124 -119.396 82.4264
    endloop
  endfacet
  facet normal 0 0.322289 0.946641
    outer loop
      vertex -122.1 -118.139 86.1183
      vertex -122.1 126 3
      vertex -124 126 3
    endloop
  endfacet
  facet normal 0 0.322289 0.946641
    outer loop
      vertex -124 -118.139 86.1183
      vertex -122.1 -118.139 86.1183
      vertex -124 126 3
    endloop
  endfacet
  facet normal 0 0.946641 -0.322289
    outer loop
      vertex -122.1 126 3
      vertex -122.1 124.743 -0.691901
      vertex -124 126 3
    endloop
  endfacet
  facet normal 0 0.946641 -0.322289
    outer loop
      vertex -124 126 3
      vertex -122.1 124.743 -0.691901
      vertex -124 124.743 -0.691901
    endloop
  endfacet
  facet normal 1 0 0
    outer loop
      vertex -122.1 124.743 -0.691901
      vertex -122.1 126 3
      vertex -122.1 -118.139 86.1183
    endloop
  endfacet
  facet normal 1 0 0
    outer loop
      vertex -122.1 -119.396 82.4264
      vertex -122.1 124.743 -0.691901
      vertex -122.1 -118.139 86.1183
    endloop
  endfacet
  facet normal -1 0 0
    outer loop
      vertex 116 123.139 83.1183
      vertex 116 -121 0
      vertex 116 121.882 86.8102
    endloop
  endfacet
  facet normal -1 0 0
    outer loop
      vertex 116 121.882 86.8102
      vertex 116 -121 0
      vertex 116 -122.257 3.6919
    endloop
  endfacet
  facet normal 0 -0.322289 0.946641
    outer loop
      vertex 117.9 -122.257 3.6919
      vertex 117.9 121.882 86.8102
      vertex 116 121.882 86.8102
    endloop
  endfacet
  facet normal 0 -0.322289 0.946641
    outer loop
      vertex 116 -122.257 3.6919
      vertex 117.9 -122.257 3.6919
      vertex 116 121.882 86.8102
    endloop
  endfacet
  facet normal 0 -0.946641 -0.322289
    outer loop
      vertex 116 -121 0
      vertex 117.9 -121 0
      vertex 117.9 -122.257 3.6919
    endloop
  endfacet
  facet normal 0 -0.946641 -0.322289
    outer loop
      vertex 116 -122.257 3.6919
      vertex 116 -121 0
      vertex 117.9 -122.257 3.6919
    endloop
  endfacet
  facet normal 0 0.946641 0.322289
    outer loop
      vertex 117.9 123.139 83.1183
      vertex 116 123.139 83.1183
      vertex 117.9 121.882 86.8102
    endloop
  endfacet
  facet normal 0 0.946641 0.322289
    outer loop
      vertex 117.9 121.882 86.8102
      vertex 116 123.139 83.1183
      vertex 116 121.882 86.8102
    endloop
  endfacet
  facet normal 0 0.322289 -0.946641
    outer loop
      vertex 117.9 123.139 83.1183
      vertex 117.9 -121 0
      vertex 116 123.139 83.1183
    endloop
  endfacet
  facet normal 0 0.322289 -0.946641
    outer loop
      vertex 116 123.139 83.1183
      vertex 117.9 -121 0
      vertex 116 -121 0
    endloop
  endfacet
  facet normal 1 0 0
    outer loop
      vertex 117.9 -121 0
      vertex 117.9 123.139 83.1183
      vertex 117.9 121.882 86.8102
    endloop
  endfacet
  facet normal 1 0 0
    outer loop
      vertex 117.9 -122.257 3.6919
      vertex 117.9 -121 0
      vertex 117.9 121.882 86.8102
    endloop
  endfacet
  facet normal -1 0 0
    outer loop
      vertex 122 126 3
      vertex 122 124.743 -0.691901
      vertex 122 -118.139 86.1183
    endloop
  endfacet
  facet normal -1 0 0
    outer loop
      vertex 122 -118.139 86.1183
      vertex 122 124.743 -0.691901
      vertex 122 -119.396 82.4264
    endloop
  endfacet
  facet normal 0 -0.946641 0.322289
    outer loop
      vertex 123.9 -119.396 82.4264
      vertex 123.9 -118.139 86.1183
      vertex 122 -118.139 86.1183
    endloop
  endfacet
  facet normal 0 -0.946641 0.322289
    outer loop
      vertex 122 -119.396 82.4264
      vertex 123.9 -119.396 82.4264
      vertex 122 -118.139 86.1183
    endloop
  endfacet
  facet normal 0 -0.322289 -0.946641
    outer loop
      vertex 123.9 124.743 -0.691901
      vertex 123.9 -119.396 82.4264
      vertex 122 124.743 -0.691901
    endloop
  endfacet
  facet normal 0 -0.322289 -0.946641
    outer loop
      vertex 122 124.743 -0.691901
      vertex 123.9 -119.396 82.4264
      vertex 122 -119.396 82.4264
    endloop
  endfacet
  facet normal 0 0.322289 0.946641
    outer loop
      vertex 123.9 -118.139 86.1183
      vertex 123.9 126 3
      vertex 122 126 3
    endloop
  endfacet
  facet normal 0 0.322289 0.946641
    outer loop
      vertex 122 -118.139 86.1183
      vertex 123.9 -118.139 86.1183
      vertex 122 126 3
    endloop
  endfacet
  facet normal 0 0.946641 -0.322289
    outer loop
      vertex 123.9 126 3
      vertex 123.9 124.743 -0.691901
      vertex 122 126 3
    endloop
  endfacet
  facet normal 0 0.946641 -0.322289
    outer loop
      vertex 122 126 3
      vertex 123.9 124.743 -0.691901
      vertex 122 124.743 -0.691901
    endloop
  endfacet
  facet normal 1 0 0
    outer loop
      vertex 123.9 124.743 -0.691901
      vertex 123.9 126 3
      vertex 123.9 -118.139 86.1183
    endloop
  endfacet
  facet normal 1 0 0
    outer loop
      vertex 123.9 -119.396 82.4264
      vertex 123.9 124.743 -0.691901
      vertex 123.9 -118.139 86.1183
    endloop
  endfacet
  facet normal -1 0 0
    outer loop
      vertex -118 -120 92
      vertex -118 -120 95.9
      vertex -118 123.9 92
    endloop
  endfacet
  facet normal -1 0 0
    outer loop
      vertex -118 123.9 92
      vertex -118 -120 95.9
      vertex -118 123.9 95.9
    endloop
  endfacet
  facet normal 0 -1 0
    outer loop
      vertex -118 -120 95.9
      vertex -118 -120 92
      vertex -116.1 -120 92
    endloop
  endfacet
  facet normal 0 -1 0
    outer loop
      vertex -116.1 -120 95.9
      vertex -118 -120 95.9
      vertex -116.1 -120 92
    endloop
  endfacet
  facet normal 0 0 -1
    outer loop
      vertex -118 -120 92
      vertex -118 123.9 92
      vertex -116.1 -120 92
    endloop
  endfacet
  facet normal 0 0 -1
    outer loop
      vertex -116.1 -120 92
      vertex -118 123.9 92
      vertex -116.1 123.9 92
    endloop
  endfacet
  facet normal 0 1 0
    outer loop
      vertex -118 123.9 92
      vertex -118 123.9 95.9
      vertex -116.1 123.9 92
    endloop
  endfacet
  facet normal 0 1 0
    outer loop
      vertex -116.1 123.9 92
      vertex -118 123.9 95.9
      vertex -116.1 123.9 95.9
    endloop
  endfacet
  facet normal 0 0 1
    outer loop
      vertex -118 123.9 95.9
      vertex -118 -120 95.9
      vertex -116.1 -120 95.9
    endloop
  endfacet
  facet normal 0 0 1
    outer loop
      vertex -116.1 123.9 95.9
      vertex -118 123.9 95.9
      vertex -116.1 -120 95.9
    endloop
  endfacet
  facet normal 1 0 0
    outer loop
      vertex -116.1 -120 95.9
      vertex -116.1 -120 92
      vertex -116.1 123.9 92
    endloop
  endfacet
  facet normal 1 0 0
    outer loop
      vertex -116.1 123.9 95.9
      vertex -116.1 -120 95.9
      vertex -116.1 123.9 92
    endloop
  endfacet
  facet normal -1 0 0
    outer loop
      vertex -116 -120 92
      vertex -116 -120 95.9
      vertex -116 123.9 92
    endloop
  endfacet
  facet normal -1 0 0
    outer loop
      vertex -116 123.9 92
      vertex -116 -120 95.9
      vertex -116 123.9 95.9
    endloop
  endfacet
  facet normal 0 -1 0
    outer loop
      vertex -116 -120 95.9
      vertex -116 -120 92
      vertex -114.1 -120 92
    endloop
  endfacet
  facet normal 0 -1 0
    outer loop
      vertex -114.1 -120 95.9
      vertex -116 -120 95.9
      vertex -114.1 -120 92
    endloop
  endfacet
  facet normal 0 0 -1
    outer loop
      vertex -116 -120 92
      vertex -116 123.9 92
      vertex -114.1 -120 92
    endloop
  endfacet
  facet normal 0 0 -1
    outer loop
      vertex -114.1 -120 92
      vertex -116 123.9 92
      vertex -114.1 123.9 92
    endloop
  endfacet
  facet normal 0 1 0
    outer loop
      vertex -116 123.9 92
      vertex -116 123.9 95.9
      vertex -114.1 123.9 92
    endloop
  endfacet
  facet normal 0 1 0
    outer loop
      vertex -114.1 123.9 92
      vertex -116 123.9 95.9
      vertex -114.1 123.9 95.9
    endloop
  endfacet
  facet normal 0 0 1
    outer loop
      vertex -116 123.9 95.9
      vertex -116 -120 95.9
      vertex -114.1 -120 95.9
    endloop
  endfacet
  facet normal 0 0 1
    outer loop
      vertex -114.1 123.9 95.9
      vertex -116 123.9 95.9
      vertex -114.1 -120 95.9
    endloop
  endfacet
  facet normal 1 0 0
    outer loop
      vertex -114.1 -120 95.9
      vertex -114.1 -120 92
      vertex -114.1 123.9 92
    endloop
  endfacet
  facet normal 1 0 0
    outer loop
      vertex -114.1 123.9 95.9
      vertex -114.1 -120 95.9
      vertex -114.1 123.9 92
    endloop
  endfacet
  facet normal -1 0 0
    outer loop
      vertex 116 -120 92
      vertex 116 -120 95.9
      vertex 116 123.9 92
    endloop
  endfacet
  facet normal -1 0 0
    outer loop
      vertex 116 123.9 92
      vertex 116 -120 95.9
      vertex 116 123.9 95.9
    endloop
  endfacet
  facet normal 0 -1 0
    outer loop
      vertex 116 -120 95.9
      vertex 116 -120 92
      vertex 117.9 -120 92
    endloop
  endfacet
  facet normal 0 -1 0
    outer loop
      vertex 117.9 -120 95.9
      vertex 116 -120 95.9
      vertex 117.9 -120 92
    endloop
  endfacet
  facet normal 0 0 -1
    outer loop
      vertex 116 -120 92
      vertex 116 123.9 92
      vertex 117.9 -120 92
    endloop
  endfacet
  facet normal 0 0 -1
    outer loop
      vertex 117.9 -120 92
      vertex 116 123.9 92
      vertex 117.9 123.9 92
    endloop
  endfacet
  facet normal 0 1 0
    outer loop
      vertex 116 123.9 92
      vertex 116 123.9 95.9
      vertex 117.9 123.9 92
    endloop
  endfacet
  facet normal 0 1 0
    outer loop
      vertex 117.9 123.9 92
      vertex 116 123.9 95.9
      vertex 117.9 123.9 95.9
    endloop
  endfacet
  facet normal 0 0 1
    outer loop
      vertex 116 123.9 95.9
      vertex 116 -120 95.9
      vertex 117.9 -120 95.9
    endloop
  endfacet
  facet normal 0 0 1
    outer loop
      vertex 117.9 123.9 95.9
      vertex 116 123.9 95.9
      vertex 117.9 -120 95.9
    endloop
  endfacet
  facet normal 1 0 0
    outer loop
      vertex 117.9 -120 95.9
      vertex 117.9 -120 92
      vertex 117.9 123.9 92
    endloop
  endfacet
  facet normal 1 0 0
    outer loop
      vertex 117.9 123.9 95.9
      vertex 117.9 -120 95.9
      vertex 117.9 123.9 92
    endloop
  endfacet
  facet normal -1 0 0
    outer loop
      vertex 114 -120 92
      vertex 114 -120 95.9
      vertex 114 123.9 92
    endloop
  endfacet
  facet normal -1 0 0
    outer loop
      vertex 114 123.9 92
      vertex 114 -120 95.9
      vertex 114 123.9 95.9
    endloop
  endfacet
  facet normal 0 -1 0
    outer loop
      vertex 114 -120 95.9
      vertex 114 -120 92
      vertex 115.9 -120 92
    endloop
  endfacet
  facet normal 0 -1 0
    outer loop
      vertex 115.9 -120 95.9
      vertex 114 -120 95.9
      vertex 115.9 -120 92
    endloop
  endfacet
  facet normal 0 0 -1
    outer loop
      vertex 114 -120 92
      vertex 114 123.9 92
      vertex 115.9 -120 92
    endloop
  endfacet
  facet normal 0 0 -1
    outer loop
      vertex 115.9 -120 92
      vertex 114 123.9 92
      vertex 115.9 123.9 92
    endloop
  endfacet
  facet normal 0 1 0
    outer loop
      vertex 114 123.9 92
      vertex 114 123.9 95.9
      vertex 115.9 123.9 92
    endloop
  endfacet
  facet normal 0 1 0
    outer loop
      vertex 115.9 123.9 92
      vertex 114 123.9 95.9
      vertex 115.9 123.9 95.9
    endloop
  endfacet
  facet normal 0 0 1
    outer loop
      vertex 114 123.9 95.9
      vertex 114 -120 95.9
      vertex 115.9 -120 95.9
    endloop
  endfacet
  facet normal 0 0 1
    outer loop
      vertex 115.9 123.9 95.9
      vertex 114 123.9 95.9
      vertex 115.9 -120 95.9
    endloop
  endfacet
  facet normal 1 0 0
    outer loop
      vertex 115.9 -120 95.9
      vertex 115.9 -120 92
      vertex 115.9 123.9 92
    endloop
  endfacet
  facet normal 1 0 0
    outer loop
      vertex 115.9 123.9 95.9
      vertex 115.9 -120 95.9
      vertex 115.9 123.9 92
    endloop
  endfacet
  facet normal -1 0 0
    outer loop
      vertex -114 118 92
      vertex -114 118 95.9
      vertex -114 119.9 92
    endloop
  endfacet
  facet normal -1 0 0
    outer loop
      vertex -114 119.9 92
      vertex -114 118 95.9
      vertex -114 119.9 95.9
    endloop
  endfacet
  facet normal 0 -1 0
    outer loop
      vertex -114 118 95.9
      vertex -114 118 92
      vertex 113.9 118 92
    endloop
  endfacet
  facet normal 0 -1 0
    outer loop
      vertex 113.9 118 95.9
      vertex -114 118 95.9
      vertex 113.9 118 92
    endloop
  endfacet
  facet normal 0 0 -1
    outer loop
      vertex -114 118 92
      vertex -114 119.9 92
      vertex 113.9 118 92
    endloop
  endfacet
  facet normal 0 0 -1
    outer loop
      vertex 113.9 118 92
      vertex -114 119.9 92
      vertex 113.9 119.9 92
    endloop
  endfacet
  facet normal 0 1 0
    outer loop
      vertex -114 119.9 92
      vertex -114 119.9 95.9
      vertex 113.9 119.9 92
    endloop
  endfacet
  facet normal 0 1 0
    outer loop
      vertex 113.9 119.9 92
      vertex -114 119.9 95.9
      vertex 113.9 119.9 95.9
    endloop
  endfacet
  facet normal 0 0 1
    outer loop
      vertex -114 119.9 95.9
      vertex -114 118 95.9
      vertex 113.9 118 95.9
    endloop
  endfacet
  facet normal 0 0 1
    outer loop
      vertex 113.9 119.9 95.9
      vertex -114 119.9 95.9
      vertex 113.9 118 95.9
    endloop
  endfacet
  facet normal 1 0 0
    outer loop
      vertex 113.9 118 95.9
      vertex 113.9 118 92
      vertex 113.9 119.9 92
    endloop
  endfacet
  facet normal 1 0 0
    outer loop
      vertex 113.9 119.9 95.9
      vertex 113.9 118 95.9
      vertex 113.9 119.9 92
    endloop
  endfacet
  facet normal -1 0 0
    outer loop
      vertex -114 116 92
      vertex -114 116 95.9
      vertex -114 117.9 92
    endloop
  endfacet
  facet normal -1 0 0
    outer loop
      vertex -114 117.9 92
      vertex -114 116 95.9
      vertex -114 117.9 95.9
    endloop
  endfacet
  facet normal 0 -1 0
    outer loop
      vertex -114 116 95.9
      vertex -114 116 92
      vertex 113.9 116 92
    endloop
  endfacet
  facet normal 0 -1 0
    outer loop
      vertex 113.9 116 95.9
      vertex -114 116 95.9
      vertex 113.9 116 92
    endloop
  endfacet
  facet normal 0 0 -1
    outer loop
      vertex -114 116 92
      vertex -114 117.9 92
      vertex 113.9 116 92
    endloop
  endfacet
  facet normal 0 0 -1
    outer loop
      vertex 113.9 116 92
      vertex -114 117.9 92
      vertex 113.9 117.9 92
    endloop
  endfacet
  facet normal 0 1 0
    outer loop
      vertex -114 117.9 92
      vertex -114 117.9 95.9
      vertex 113.9 117.9 92
    endloop
  endfacet
  facet normal 0 1 0
    outer loop
      vertex 113.9 117.9 92
      vertex -114 117.9 95.9
      vertex 113.9 117.9 95.9
    endloop
  endfacet
  facet normal 0 0 1
    outer loop
      vertex -114 117.9 95.9
      vertex -114 116 95.9
      vertex 113.9 116 95.9
    endloop
  endfacet
  facet normal 0 0 1
    outer loop
      vertex 113.9 117.9 95.9
      vertex -114 117.9 95.9
      vertex 113.9 116 95.9
    endloop
  endfacet
  facet normal 1 0 0
    outer loop
      vertex 113.9 116 95.9
      vertex 113.9 116 92
      vertex 113.9 117.9 92
    endloop
  endfacet
  facet normal 1 0 0
    outer loop
      vertex 113.9 117.9 95.9
      vertex 113.9 116 95.9
      vertex 113.9 117.9 92
    endloop
  endfacet
  facet normal -1 0 0
    outer loop
      vertex -114 -116 92
      vertex -114 -116 95.9
      vertex -114 -114.1 92
    endloop
  endfacet
  facet normal -1 0 0
    outer loop
      vertex -114 -114.1 92
      vertex -114 -116 95.9
      vertex -114 -114.1 95.9
    endloop
  endfacet
  facet normal 0 -1 0
    outer loop
      vertex -114 -116 95.9
      vertex -114 -116 92
      vertex 113.9 -116 92
    endloop
  endfacet
  facet normal 0 -1 0
    outer loop
      vertex 113.9 -116 95.9
      vertex -114 -116 95.9
      vertex 113.9 -116 92
    endloop
  endfacet
  facet normal 0 0 -1
    outer loop
      vertex -114 -116 92
      vertex -114 -114.1 92
      vertex 113.9 -116 92
    endloop
  endfacet
  facet normal 0 0 -1
    outer loop
      vertex 113.9 -116 92
      vertex -114 -114.1 92
      vertex 113.9 -114.1 92
    endloop
  endfacet
  facet normal 0 1 0
    outer loop
      vertex -114 -114.1 92
      vertex -114 -114.1 95.9
      vertex 113.9 -114.1 92
    endloop
  endfacet
  facet normal 0 1 0
    outer loop
      vertex 113.9 -114.1 92
      vertex -114 -114.1 95.9
      vertex 113.9 -114.1 95.9
    endloop
  endfacet
  facet normal 0 0 1
    outer loop
      vertex -114 -114.1 95.9
      vertex -114 -116 95.9
      vertex 113.9 -116 95.9
    endloop
  endfacet
  facet normal 0 0 1
    outer loop
      vertex 113.9 -114.1 95.9
      vertex -114 -114.1 95.9
      vertex 113.9 -116 95.9
    endloop
  endfacet
  facet normal 1 0 0
    outer loop
      vertex 113.9 -116 95.9
      vertex 113.9 -116 92
      vertex 113.9 -114.1 92
    endloop
  endfacet
  facet normal 1 0 0
    outer loop
      vertex 113.9 -114.1 95.9
      vertex 113.9 -116 95.9
      vertex 113.9 -114.1 92
    endloop
  endfacet
  facet normal -1 0 0
    outer loop
      vertex -114 -114 92
      vertex -114 -114 95.9
      vertex -114 -112.1 92
    endloop
  endfacet
  facet normal -1 0 0
    outer loop
      vertex -114 -112.1 92
      vertex -114 -114 95.9
      vertex -114 -112.1 95.9
    endloop
  endfacet
  facet normal 0 -1 0
    outer loop
      vertex -114 -114 95.9
      vertex -114 -114 92
      vertex 113.9 -114 92
    endloop
  endfacet
  facet normal 0 -1 0
    outer loop
      vertex 113.9 -114 95.9
      vertex -114 -114 95.9
      vertex 113.9 -114 92
    endloop
  endfacet
  facet normal 0 0 -1
    outer loop
      vertex -114 -114 92
      vertex -114 -112.1 92
      vertex 113.9 -114 92
    endloop
  endfacet
  facet normal 0 0 -1
    outer loop
      vertex 113.9 -114 92
      vertex -114 -112.1 92
      vertex 113.9 -112.1 92
    endloop
  endfacet
  facet normal 0 1 0
    outer loop
      vertex -114 -112.1 92
      vertex -114 -112.1 95.9
      vertex 113.9 -112.1 92
    endloop
  endfacet
  facet normal 0 1 0
    outer loop
      vertex 113.9 -112.1 92
      vertex -114 -112.1 95.9
      vertex 113.9 -112.1 95.9
    endloop
  endfacet
  facet normal 0 0 1
    outer loop
      vertex -114 -112.1 95.9
      vertex -114 -114 95.9
      vertex 113.9 -114 95.9
    endloop
  endfacet
  facet normal 0 0 1
    outer loop
      vertex 113.9 -112.1 95.9
      vertex -114 -112.1 95.9
      vertex 113.9 -114 95.9
    endloop
  endfacet
  facet normal 1 0 0
    outer loop
      vertex 113.9 -114 95.9
      vertex 113.9 -114 92
      vertex 113.9 -112.1 92
    endloop
  endfacet
  facet normal 1 0 0
    outer loop
      vertex 113.9 -112.1 95.9
      vertex 113.9 -114 95.9
      vertex 113.9 -112.1 92
    endloop
  endfacet
  facet normal -1 0 0
    outer loop
      vertex -124 -122 92
      vertex -124 -122 95.9
      vertex -124 125.9 92
    endloop
  endfacet
  facet normal -1 0 0
    outer loop
      vertex -124 125.9 92
      vertex -124 -122 95.9
      vertex -124 125.9 95.9
    endloop
  endfacet
  facet normal 0 -1 0
    outer loop
      vertex -124 -122 95.9
      vertex -124 -122 92
      vertex -122.1 -122 92
    endloop
  endfacet
  facet normal 0 -1 0
    outer loop
      vertex -122.1 -122 95.9
      vertex -124 -122 95.9
      vertex -122.1 -122 92
    endloop
  endfacet
  facet normal 0 0 -1
    outer loop
      vertex -124 -122 92
      vertex -124 125.9 92
      vertex -122.1 -122 92
    endloop
  endfacet
  facet normal 0 0 -1
    outer loop
      vertex -122.1 -122 92
      vertex -124 125.9 92
      vertex -122.1 125.9 92
    endloop
  endfacet
  facet normal 0 1 0
    outer loop
      vertex -124 125.9 92
      vertex -124 125.9 95.9
      vertex -122.1 125.9 92
    endloop
  endfacet
  facet normal 0 1 0
    outer loop
      vertex -122.1 125.9 92
      vertex -124 125.9 95.9
      vertex -122.1 125.9 95.9
    endloop
  endfacet
  facet normal 0 0 1
    outer loop
      vertex -124 125.9 95.9
      vertex -124 -122 95.9
      vertex -122.1 -122 95.9
    endloop
  endfacet
  facet normal 0 0 1
    outer loop
      vertex -122.1 125.9 95.9
      vertex -124 125.9 95.9
      vertex -122.1 -122 95.9
    endloop
  endfacet
  facet normal 1 0 0
    outer loop
      vertex -122.1 -122 95.9
      vertex -122.1 -122 92
      vertex -122.1 125.9 92
    endloop
  endfacet
  facet normal 1 0 0
    outer loop
      vertex -122.1 125.9 95.9
      vertex -122.1 -122 95.9
      vertex -122.1 125.9 92
    endloop
  endfacet
  facet normal -1 0 0
    outer loop
      vertex 122 -254.315 3.13845
      vertex 122 -0.100965 190.67
      vertex 122 -252 0
    endloop
  endfacet
  facet normal -1 0 0
    outer loop
      vertex 122 -121.999 95.9
      vertex 122 -0.100965 190.67
      vertex 122 2.21423 187.531
    endloop
  endfacet
  facet normal -1 0 0
    outer loop
      vertex 122 -252 0
      vertex 122 -0.100965 190.67
      vertex 122 -122 95.8996
    endloop
  endfacet
  facet normal -1 0 0
    outer loop
      vertex 122 -121.999 95.9
      vertex 122 125.9 95.9
      vertex 122 -122 92
    endloop
  endfacet
  facet normal -1 0 0
    outer loop
      vertex 122 -121.999 95.9
      vertex 122 -122 92
      vertex 122 -122 95.8996
    endloop
  endfacet
  facet normal -1 0 0
    outer loop
      vertex 122 -121.999 95.9
      vertex 122 -122 95.8996
      vertex 122 -0.100965 190.67
    endloop
  endfacet
  facet normal -1 0 0
    outer loop
      vertex 122 -122 92
      vertex 122 125.9 95.9
      vertex 122 125.9 92
    endloop
  endfacet
  facet normal 0 -0.593641 0.80473
    outer loop
      vertex 122 -0.100965 190.67
      vertex 122 -254.315 3.13845
      vertex 123.9 -254.315 3.13845
    endloop
  endfacet
  facet normal 0 -0.593641 0.80473
    outer loop
      vertex 123.9 -0.100965 190.67
      vertex 122 -0.100965 190.67
      vertex 123.9 -254.315 3.13845
    endloop
  endfacet
  facet normal 0 -0.80473 -0.593641
    outer loop
      vertex 123.9 -254.315 3.13845
      vertex 122 -254.315 3.13845
      vertex 122 -252 0
    endloop
  endfacet
  facet normal 0 -0.80473 -0.593641
    outer loop
      vertex 123.9 -252 0
      vertex 123.9 -254.315 3.13845
      vertex 122 -252 0
    endloop
  endfacet
  facet normal 0 0.593641 -0.80473
    outer loop
      vertex 122 -252 0
      vertex 122 -122 95.8996
      vertex 123.9 -252 0
    endloop
  endfacet
  facet normal 0 0.593641 -0.80473
    outer loop
      vertex 123.9 -252 0
      vertex 122 -122 95.8996
      vertex 123.9 -122 95.8996
    endloop
  endfacet
  facet normal 0 -1 0
    outer loop
      vertex 122 -122 95.8996
      vertex 122 -122 92
      vertex 123.9 -122 92
    endloop
  endfacet
  facet normal 0 -1 0
    outer loop
      vertex 123.9 -122 95.8996
      vertex 122 -122 95.8996
      vertex 123.9 -122 92
    endloop
  endfacet
  facet normal 0 0 -1
    outer loop
      vertex 122 -122 92
      vertex 122 125.9 92
      vertex 123.9 -122 92
    endloop
  endfacet
  facet normal 0 0 -1
    outer loop
      vertex 123.9 -122 92
      vertex 122 125.9 92
      vertex 123.9 125.9 92
    endloop
  endfacet
  facet normal 0 1 0
    outer loop
      vertex 122 125.9 92
      vertex 122 125.9 95.9
      vertex 123.9 125.9 92
    endloop
  endfacet
  facet normal 0 1 0
    outer loop
      vertex 123.9 125.9 92
      vertex 122 125.9 95.9
      vertex 123.9 125.9 95.9
    endloop
  endfacet
  facet normal 0 0 1
    outer loop
      vertex 122 125.9 95.9
      vertex 122 -121.999 95.9
      vertex 123.9 -121.999 95.9
    endloop
  endfacet
  facet normal 0 0 1
    outer loop
      vertex 123.9 125.9 95.9
      vertex 122 125.9 95.9
      vertex 123.9 -121.999 95.9
    endloop
  endfacet
  facet normal 0 0.593641 -0.80473
    outer loop
      vertex 122 -121.999 95.9
      vertex 122 2.21423 187.531
      vertex 123.9 -121.999 95.9
    endloop
  endfacet
  facet normal 0 0.593641 -0.80473
    outer loop
      vertex 123.9 -121.999 95.9
      vertex 122 2.21423 187.531
      vertex 123.9 2.21423 187.531
    endloop
  endfacet
  facet normal 0 0.80473 0.593641
    outer loop
      vertex 122 -0.100965 190.67
      vertex 123.9 -0.100965 190.67
      vertex 122 2.21423 187.531
    endloop
  endfacet
  facet normal 0 0.80473 0.593641
    outer loop
      vertex 122 2.21423 187.531
      vertex 123.9 -0.100965 190.67
      vertex 123.9 2.21423 187.531
    endloop
  endfacet
  facet normal 1 0 0
    outer loop
      vertex 123.9 -0.100965 190.67
      vertex 123.9 -254.315 3.13845
      vertex 123.9 -252 0
    endloop
  endfacet
  facet normal 1 0 0
    outer loop
      vertex 123.9 -121.999 95.9
      vertex 123.9 -0.100965 190.67
      vertex 123.9 -122 95.8996
    endloop
  endfacet
  facet normal 1 0 0
    outer loop
      vertex 123.9 -122 95.8996
      vertex 123.9 -0.100965 190.67
      vertex 123.9 -252 0
    endloop
  endfacet
  facet normal 1 0 0
    outer loop
      vertex 123.9 -122 92
      vertex 123.9 -121.999 95.9
      vertex 123.9 -122 95.8996
    endloop
  endfacet
  facet normal 1 0 0
    outer loop
      vertex 123.9 -121.999 95.9
      vertex 123.9 2.21423 187.531
      vertex 123.9 -0.100965 190.67
    endloop
  endfacet
  facet normal 1 0 0
    outer loop
      vertex 123.9 125.9 95.9
      vertex 123.9 -122 92
      vertex 123.9 125.9 92
    endloop
  endfacet
  facet normal 1 0 0
    outer loop
      vertex 123.9 125.9 95.9
      vertex 123.9 -121.999 95.9
      vertex 123.9 -122 92
    endloop
  endfacet
  facet normal -1 0 0
    outer loop
      vertex -122 124 92
      vertex -122 124 95.9
      vertex -122 125.9 92
    endloop
  endfacet
  facet normal -1 0 0
    outer loop
      vertex -122 125.9 92
      vertex -122 124 95.9
      vertex -122 125.9 95.9
    endloop
  endfacet
  facet normal 0 -1 0
    outer loop
      vertex -122 124 95.9
      vertex -122 124 92
      vertex 121.9 124 92
    endloop
  endfacet
  facet normal 0 -1 0
    outer loop
      vertex 121.9 124 95.9
      vertex -122 124 95.9
      vertex 121.9 124 92
    endloop
  endfacet
  facet normal 0 0 -1
    outer loop
      vertex -122 124 92
      vertex -122 125.9 92
      vertex 121.9 124 92
    endloop
  endfacet
  facet normal 0 0 -1
    outer loop
      vertex 121.9 124 92
      vertex -122 125.9 92
      vertex 121.9 125.9 92
    endloop
  endfacet
  facet normal 0 1 0
    outer loop
      vertex -122 125.9 92
      vertex -122 125.9 95.9
      vertex 121.9 125.9 92
    endloop
  endfacet
  facet normal 0 1 0
    outer loop
      vertex 121.9 125.9 92
      vertex -122 125.9 95.9
      vertex 121.9 125.9 95.9
    endloop
  endfacet
  facet normal 0 0 1
    outer loop
      vertex -122 125.9 95.9
      vertex -122 124 95.9
      vertex 121.9 124 95.9
    endloop
  endfacet
  facet normal 0 0 1
    outer loop
      vertex 121.9 125.9 95.9
      vertex -122 125.9 95.9
      vertex 121.9 124 95.9
    endloop
  endfacet
  facet normal 1 0 0
    outer loop
      vertex 121.9 124 95.9
      vertex 121.9 124 92
      vertex 121.9 125.9 92
    endloop
  endfacet
  facet normal 1 0 0
    outer loop
      vertex 121.9 125.9 95.9
      vertex 121.9 124 95.9
      vertex 121.9 125.9 92
    endloop
  endfacet
endsolid OpenSCAD_Model
